<?xml version="1.0" encoding="iso-8859-1"?>
<!-- Generator: Adobe Illustrator 19.0.0, SVG Export Plug-In . SVG Version: 6.00 Build 0)  -->
<svg version="1.1" id="Capa_1" xmlns="http://www.w3.org/2000/svg" xmlns:xlink="http://www.w3.org/1999/xlink" x="0px" y="0px"
	 viewBox="0 0 512 512" style="enable-background:new 0 0 512 512;" xml:space="preserve">
<rect x="99.652" y="232.385" style="fill:#525C5E;" width="323.103" height="257.034"/>
<rect x="99.652" y="232.385" style="fill:#484E4F;" width="323.103" height="59.422"/>
<path style="fill:#B58360;" d="M307.622,366.037v76.072H205.127v-76.072c0-25.278,18.309-46.281,42.395-50.474
	c2.882-0.508,5.836-0.768,8.86-0.768c3.024,0,5.977,0.26,8.86,0.768C289.312,319.757,307.622,340.759,307.622,366.037z"/>
<path style="fill:#996A4A;" d="M265.239,315.563v126.546h-17.718V315.563c2.882-0.508,5.836-0.768,8.86-0.768
	C259.404,314.795,262.357,315.056,265.239,315.563z"/>
<rect x="192.125" y="435.503" style="fill:#C6CAD5;" width="128.502" height="32.444"/>
<g>
	<rect x="172.22" y="457.132" style="fill:#E3E4E8;" width="168.323" height="33.849"/>
	<polygon style="fill:#E3E4E8;" points="456.989,155.835 456.989,226.116 55.769,226.116 55.769,155.835 256.379,15.672 	"/>
	<rect x="67.971" y="275.101" style="fill:#E3E4E8;" width="63.352" height="175.135"/>
</g>
<g>
	<rect x="67.971" y="275.101" style="fill:#C6CAD5;" width="63.352" height="35.516"/>
	<rect x="67.971" y="275.101" style="fill:#C6CAD5;" width="25.407" height="175.135"/>
</g>
<rect x="52.632" y="233.984" style="fill:#E3E4E8;" width="94.036" height="57.403"/>
<rect x="52.632" y="249.626" style="fill:#C6CAD5;" width="28.045" height="41.76"/>
<rect x="52.632" y="433.946" style="fill:#E3E4E8;" width="94.036" height="55.463"/>
<rect x="52.632" y="433.946" style="fill:#C6CAD5;" width="28.045" height="41.76"/>
<rect x="381.43" y="275.101" style="fill:#E3E4E8;" width="63.352" height="175.135"/>
<g>
	<rect x="381.43" y="275.101" style="fill:#C6CAD5;" width="25.407" height="175.135"/>
	<rect x="381.43" y="275.101" style="fill:#C6CAD5;" width="63.352" height="35.516"/>
</g>
<rect x="366.08" y="233.984" style="fill:#E3E4E8;" width="94.036" height="57.403"/>
<g>
	<rect x="52.632" y="233.984" style="fill:#C6CAD5;" width="94.036" height="31.701"/>
	<rect x="366.08" y="233.984" style="fill:#C6CAD5;" width="94.036" height="31.701"/>
	<rect x="366.08" y="249.626" style="fill:#C6CAD5;" width="28.045" height="41.76"/>
</g>
<rect x="366.08" y="433.946" style="fill:#E3E4E8;" width="94.036" height="55.463"/>
<g>
	<rect x="366.08" y="433.946" style="fill:#C6CAD5;" width="28.045" height="41.76"/>
	<polygon style="fill:#C6CAD5;" points="456.989,158.385 456.989,206.669 256.379,82.765 55.769,206.669 55.769,158.385 
		256.379,34.481 	"/>
</g>
<polygon style="fill:#E3E4E8;" points="511.305,205.742 256.376,48.287 1.447,205.742 1.447,157.456 256.376,0 511.305,157.456 "/>
<path style="fill:#423E3E;" d="M494.202,475.711H17.798C7.968,475.711,0,483.678,0,493.507V512h512v-18.493
	C512,483.678,504.032,475.711,494.202,475.711z"/>
<rect x="36.174" y="210.442" style="fill:#C0C4D1;" width="440.404" height="39.182"/>
<path style="fill:#727B7C;" d="M286.44,155.273c0-15.679-10.366-21.922-20.753-26.098v-23.402c5.994,1.281,8.597,4.244,11.651,4.244
	c4.743,0,6.795-5.897,6.795-8.846c0-6.469-10.284-9.153-18.446-9.911v-6.756c0-4.328-3.508-7.837-7.837-7.837
	c-4.328,0-7.837,3.509-7.837,7.837v7.388c-11.44,2.437-21.394,9.608-21.394,24.406c0,14.794,10.732,20.314,21.394,24.452v26.153
	c-8.657-2.363-12.191-8.938-16.522-8.938c-3.975,0-7.179,5.384-7.179,8.975c0,6.632,9.958,14.242,23.701,15.669v7.023
	c0,4.328,3.509,7.837,7.837,7.837c4.329,0,7.837-3.509,7.837-7.837v-7.915C278.131,178.565,286.44,169.729,286.44,155.273z
	 M244.261,114.633c0-3.588,2.092-6.198,5.753-7.737v16.094C246.535,121.101,244.261,118.701,244.261,114.633z M265.687,165.838
	v-18.256c3.097,2.136,5.112,4.96,5.112,9.358C270.799,161.183,268.823,164.086,265.687,165.838z"/>
<g>
</g>
<g>
</g>
<g>
</g>
<g>
</g>
<g>
</g>
<g>
</g>
<g>
</g>
<g>
</g>
<g>
</g>
<g>
</g>
<g>
</g>
<g>
</g>
<g>
</g>
<g>
</g>
<g>
</g>
</svg>
