<svg height="512pt" viewBox="0 0 512 512.00001" width="512pt" xmlns="http://www.w3.org/2000/svg"><path d="m20.425781 40.847656h471.152344v471.152344h-471.152344zm0 0" fill="#fc4549"/><path d="m20.425781 40.847656h471.152344v48.839844h-471.152344zm0 0" fill="#d12424"/><path d="m0 0h512v61.09375h-512zm0 0" fill="#575f64"/><g fill="#cdcfe0"><path d="m87.628906 205.425781h156.597656v306.574219h-156.597656zm0 0"/><path d="m279.660156 115.554688h164.257813v314.554687h-164.257813zm0 0"/><path d="m87.628906 115.554688h156.597656v59.789062h-156.597656zm0 0"/></g><path d="m244.226562 205.425781v35.316407l-156.597656 156.601562v-57.773438l134.152344-134.144531zm0 0" fill="#e6e8ef"/><path d="m213.078125 115.554688-59.777344 59.789062h-57.785156l59.800781-59.789062zm0 0" fill="#e6e8ef"/><path d="m244.226562 322.808594v139.839844l-49.351562 49.351562h-107.246094v-32.601562zm0 0" fill="#e6e8ef"/><path d="m252.0625 512h-15.675781v-298.734375h-140.917969v298.734375h-15.671875v-306.570312c0-4.328126 3.507813-7.835938 7.835937-7.835938h156.59375c4.328126 0 7.835938 3.507812 7.835938 7.835938zm0 0" fill="#d12424"/><path d="m443.917969 115.554688v23.78125l-164.257813 164.257812v-57.773438l130.265625-130.265624zm0 0" fill="#e6e8ef"/><path d="m443.917969 185.050781v57.78125l-164.257813 164.25v-57.761719zm0 0" fill="#e6e8ef"/><path d="m244.226562 183.183594h-156.59375c-4.328124 0-7.835937-3.511719-7.835937-7.839844v-59.785156c0-4.328125 3.507813-7.835938 7.835937-7.835938h156.59375c4.328126 0 7.835938 3.507813 7.835938 7.835938v59.785156c0 4.328125-3.507812 7.839844-7.835938 7.839844zm-148.757812-15.675782h140.917969v-44.113281h-140.917969zm0 0" fill="#d12424"/><path d="m59.917969 146.910156v147.894532c0 14.203124-9.886719 26.101562-23.15625 29.175781-2.183594.511719-4.460938.785156-6.800781.785156-16.550782 0-29.95703175-13.417969-29.95703175-29.960937v-147.894532c0-16.550781 13.40624975-29.957031 29.95703175-29.957031 2.339843 0 4.617187.273437 6.800781.785156 13.269531 3.070313 23.15625 14.960938 23.15625 29.171875zm0 0" fill="#2b2f3a"/><path d="m59.917969 146.910156v147.894532c0 14.203124-9.886719 26.101562-23.15625 29.175781-13.269531-3.082031-23.144531-14.972657-23.144531-29.175781v-147.894532c0-14.210937 9.875-26.101562 23.144531-29.171875 13.269531 3.070313 23.15625 14.960938 23.15625 29.171875zm0 0" fill="#575f64"/><path d="m0 146.910156h59.914062v147.898438h-59.914062zm0 0" fill="#cdcfe0"/><path d="m0 146.910156h13.617188v147.898438h-13.617188zm0 0" fill="#abaec4"/><path d="m59.914062 191.683594-59.914062 24.71875v-33.625l59.914062-24.71875zm0 0" fill="#fc4549"/><path d="m59.914062 258.9375-59.914062 24.71875v-33.625l59.914062-24.71875zm0 0" fill="#4b7fbc"/><path d="m13.613281 177.164062v33.625l-13.613281 5.621094v-33.632812zm0 0" fill="#d12424"/><path d="m13.613281 244.414062v33.625l-13.613281 5.621094v-33.625zm0 0" fill="#2b6299"/><path d="m416.121094 314.246094c-4.710938-4.710938-10.976563-7.304688-17.636719-7.304688-5.589844 0-10.894531 1.832032-15.242187 5.203125l-8.925782-31.277343 14.707032-51.523438c1.1875-4.164062-1.222657-8.5-5.386719-9.6875-4.164063-1.1875-8.5 1.222656-9.6875 5.386719l-7.78125 27.269531-7.785157-27.269531c-1.1875-4.164063-5.527343-6.570313-9.6875-5.386719-4.160156 1.1875-6.570312 5.523438-5.382812 9.6875l14.703125 51.523438-8.925781 31.277343c-4.34375-3.371093-9.652344-5.203125-15.238282-5.203125-6.664062 0-12.929687 2.59375-17.636718 7.304688-4.714844 4.710937-7.308594 10.976562-7.308594 17.636718 0 6.664063 2.59375 12.929688 7.308594 17.640626 4.710937 4.710937 10.972656 7.304687 17.636718 7.304687 6.660157 0 12.925782-2.59375 17.636719-7.304687 3.457031-3.457032 5.765625-7.75 6.757813-12.425782.046875-.132812.097656-.265625.136718-.40625l7.78125-27.269531 7.785157 27.269531c.03125.109375.082031.203125.117187.308594.976563 4.710938 3.296875 9.039062 6.777344 12.523438 4.710938 4.710937 10.972656 7.304687 17.636719 7.304687 6.664062 0 12.925781-2.59375 17.636719-7.304687 4.710937-4.714844 7.308593-10.976563 7.308593-17.640626 0-6.660156-2.59375-12.925781-7.304687-17.636718zm-82.269532 26.90625c-2.476562 0-4.804687-.960938-6.554687-2.714844-1.75-1.75-2.714844-4.078125-2.714844-6.554688 0-2.472656.964844-4.800781 2.714844-6.554687 1.75-1.75 4.078125-2.710937 6.554687-2.710937 2.476563 0 4.804688.960937 6.554688 2.710937 1.75 1.753906 2.714844 4.082031 2.714844 6.554687 0 2.476563-.964844 4.804688-2.71875 6.554688-1.746094 1.753906-4.074219 2.714844-6.550782 2.714844zm71.183594-2.714844c-1.75 1.753906-4.078125 2.714844-6.554687 2.714844-2.472657 0-4.800781-.960938-6.554688-2.714844-1.75-1.75-2.710937-4.078125-2.710937-6.554688 0-2.472656.960937-4.800781 2.714844-6.554687 1.75-1.75 4.078124-2.710937 6.550781-2.710937 2.476562 0 4.804687.960937 6.554687 2.710937 1.753906 1.753906 2.714844 4.082031 2.714844 6.554687 0 2.476563-.960938 4.804688-2.714844 6.554688zm0 0" fill="#fff"/><path d="m223.496094 354.191406c0 9.308594-7.542969 16.851563-16.851563 16.851563-9.304687 0-16.851562-7.542969-16.851562-16.851563 0-9.304687 7.546875-16.851562 16.851562-16.851562 9.308594 0 16.851563 7.546875 16.851563 16.851562zm0 0" fill="#575f64"/><path d="m443.917969 437.945312h-164.257813c-4.328125 0-7.835937-3.507812-7.835937-7.835937v-314.554687c0-4.328126 3.507812-7.835938 7.835937-7.835938h164.257813c4.328125 0 7.835937 3.507812 7.835937 7.835938v314.554687c0 4.328125-3.507812 7.835937-7.835937 7.835937zm-156.421875-15.671874h148.585937v-298.882813h-148.585937zm0 0" fill="#d12424"/></svg>