<svg height="452pt" viewBox="0 0 452.856 452" width="452pt" xmlns="http://www.w3.org/2000/svg"><path d="m371.621094 22.777344c-1.949219 23.128906-26.050782 26.777344-26.050782 26.777344 20.695313.976562 25.851563 28.121093 25.851563 28.121093.441406-19.355469 26.640625-28.40625 26.640625-28.40625-19.625-1.171875-26.441406-26.492187-26.441406-26.492187zm0 0" fill="#d7e057"/><path d="m398.242188 46.277344c-17.207032-1.03125-23.664063-24.050782-23.726563-24.28125-.378906-1.40625-1.703125-2.320313-3.167969-2.207032-1.449218.132813-2.59375 1.285157-2.71875 2.734376-1.71875 20.429687-22.625 23.929687-23.507812 24.066406-1.523438.230468-2.625 1.582031-2.546875 3.121094.082031 1.542968 1.316406 2.769531 2.859375 2.84375 18.054687.851562 22.996094 25.4375 23.042968 25.683593.277344 1.421875 1.519532 2.433594 2.945313 2.433594.085937 0 .167969 0 .253906-.007813 1.527344-.128906 2.710938-1.386718 2.75-2.917968.382813-17.019532 24.378907-25.554688 24.625-25.640625 1.351563-.46875 2.183594-1.828125 1.988281-3.246094-.199218-1.414063-1.367187-2.496094-2.796874-2.582031zm-27.128907 20.691406c-2.714843-6.261719-7.417969-13.8125-15.175781-17.753906 5.863281-2.808594 12.816406-7.824219 16.402344-16.542969 3.101562 6.144531 8.398437 13.761719 16.671875 17.445313-6.019531 3.277343-13.847657 8.808593-17.898438 16.851562zm0 0" fill="#3a312a"/><path d="m328.222656 56.742188c-1.375 16.355468-18.425781 18.941406-18.425781 18.941406 14.636719.6875 18.289063 19.886718 18.289063 19.886718.308593-13.6875 18.84375-20.089843 18.84375-20.089843-13.886719-.832031-18.707032-18.738281-18.707032-18.738281zm0 0" fill="#d7e057"/><path d="m347.105469 72.484375c-11.53125-.691406-15.945313-16.371094-15.988281-16.53125-.378907-1.402344-1.722657-2.324219-3.160157-2.203125-1.453125.128906-2.601562 1.285156-2.722656 2.738281-1.15625 13.738281-15.292969 16.132813-15.882813 16.226563-1.527343.230468-2.628906 1.578125-2.550781 3.121094.082031 1.539062 1.316407 2.769531 2.855469 2.84375 12.070312.566406 15.449219 17.285156 15.480469 17.449218.269531 1.425782 1.515625 2.441406 2.945312 2.441406.082031 0 .164063 0 .25-.011718 1.53125-.125 2.714844-1.386719 2.753907-2.921875.257812-11.417969 16.660156-17.265625 16.820312-17.320313 1.355469-.46875 2.1875-1.828125 1.992188-3.246094-.195313-1.417968-1.363282-2.5-2.792969-2.585937zm-19.167969 13.589844c-1.847656-3.769531-4.679688-7.894531-8.894531-10.558594 3.714843-2.082031 7.394531-5.261719 9.742187-9.832031 2.113282 3.746094 5.308594 7.90625 9.878906 10.445312-3.695312 2.203125-7.976562 5.480469-10.726562 9.945313zm0 0" fill="#3a312a"/><path d="m328.222656 3.425781c-1.375 16.355469-18.425781 18.941407-18.425781 18.941407 14.636719.6875 18.289063 19.886718 18.289063 19.886718.308593-13.6875 18.84375-20.089844 18.84375-20.089844-13.886719-.832031-18.707032-18.738281-18.707032-18.738281zm0 0" fill="#d7e057"/><path d="m347.105469 19.167969c-11.53125-.691407-15.945313-16.371094-15.988281-16.527344-.378907-1.402344-1.722657-2.320313-3.160157-2.203125-1.453125.132812-2.601562 1.285156-2.722656 2.738281-1.15625 13.742188-15.292969 16.132813-15.882813 16.226563-1.527343.230468-2.628906 1.582031-2.550781 3.121094.082031 1.542968 1.316407 2.769531 2.855469 2.84375 12.070312.566406 15.449219 17.289062 15.480469 17.453124.269531 1.421876 1.515625 2.4375 2.945312 2.4375.082031 0 .164063 0 .25-.007812 1.53125-.128906 2.714844-1.390625 2.753907-2.921875.257812-11.417969 16.660156-17.269531 16.820312-17.324219 1.355469-.46875 2.1875-1.828125 1.992188-3.246094-.195313-1.417968-1.363282-2.503906-2.792969-2.589843zm-19.167969 13.59375c-1.847656-3.773438-4.679688-7.894531-8.894531-10.5625 3.714843-2.082031 7.394531-5.257813 9.742187-9.832031 2.113282 3.746093 5.308594 7.910156 9.878906 10.449218-3.695312 2.199219-7.976562 5.476563-10.726562 9.945313zm0 0" fill="#3a312a"/><path d="m216.429688 337.023438h-39.058594v-25.386719c-10.804688 7.488281-21.984375 11.90625-32.832032 11.90625-10.40625 0-21.386718-4.460938-32.144531-12.039063h-.664062v25.515625h-39.082031c-32.65625 0-59.121094 26.46875-59.121094 59.121094v53.574219h262.023437v-53.570313c0-32.652343-26.464843-59.121093-59.121093-59.121093zm0 0" fill="#fce8cb"/><path d="m216.429688 334.023438h-36.058594v-22.386719c0-1.117188-.621094-2.140625-1.609375-2.660157-.988281-.515624-2.183594-.441406-3.101563.195313-10.882812 7.546875-21.355468 11.371094-31.121094 11.371094-9.355468 0-19.589843-3.867188-30.417968-11.492188-.503906-.355469-1.109375-.546875-1.726563-.546875h-.664062c-1.65625 0-3 1.339844-3 3v22.515625h-36.082031c-34.253907 0-62.121094 27.867188-62.121094 62.121094v53.578125c0 1.65625 1.34375 3 3 3h89.777344c1.65625 0 3-1.34375 3-3 0-1.660156-1.34375-3-3-3h-86.777344v-50.574219c0-30.945312 25.175781-56.121093 56.121094-56.121093h39.082031c1.65625 0 3-1.34375 3-3v-20.351563c10.402343 6.554687 20.410156 9.871094 29.808593 9.871094 9.554688 0 19.570313-3.152344 29.832032-9.378907v19.859376c0 1.65625 1.34375 3 3 3h39.058594c30.945312 0 56.121093 25.175781 56.121093 56.121093v50.574219h-139.707031c-1.65625 0-3 1.34375-3 3 0 1.660156 1.34375 3 3 3h142.707031c1.65625 0 3-1.339844 3-3v-53.574219c0-34.253906-27.867187-62.121093-62.121093-62.121093zm0 0" fill="#3a312a"/><path d="m216.433594 337.007812h-9.347656l.242187.175782-40.628906 53.886718-20.96875-15.796874-20.964844 15.796874-40.628906-53.886718.242187-.175782h-11.730468c-32.65625 0-59.121094 26.464844-59.121094 59.121094v53.597656h262.023437v-53.597656c0-32.65625-26.464843-59.121094-59.117187-59.121094zm0 0" fill="#8ac6dd"/><path d="m216.433594 334.007812h-9.347656c-1.296876 0-2.449219.832032-2.851563 2.070313-.039063.113281-.070313.230469-.09375.347656l-38.03125 50.441407-18.574219-13.992188c-1.066406-.804688-2.542968-.804688-3.609375 0l-18.570312 13.992188-38.03125-50.441407c-.023438-.117187-.050781-.234375-.09375-.347656-.402344-1.238281-1.550781-2.070313-2.851563-2.070313h-11.730468c-34.253907 0-62.121094 27.867188-62.121094 62.121094v53.597656c0 1.65625 1.34375 3 3 3h89.777344c1.65625 0 3-1.34375 3-3s-1.34375-3-3-3h-86.777344v-50.597656c0-30.945312 25.175781-56.121094 56.121094-56.121094h9.863281l39.863281 52.867188c.992188 1.320312 2.871094 1.585938 4.199219.589844l19.160156-14.4375 19.164063 14.4375c1.320312.996094 3.207031.734375 4.199218-.589844l39.863282-52.867188h7.476562c30.945312 0 56.121094 25.175782 56.121094 56.121094v50.597656h-139.714844c-1.65625 0-3 1.34375-3 3s1.34375 3 3 3h142.707031c1.65625 0 3-1.34375 3-3v-53.597656c.003907-34.257812-27.863281-62.121094-62.117187-62.121094zm0 0" fill="#3a312a"/><path d="m43.019531 167.203125c-12.847656 0-23.261719 10.414063-23.261719 23.261719 0 12.851562 10.414063 23.261718 23.261719 23.261718 12.847657 0 23.265625-10.414062 23.265625-23.261718s-10.417968-23.261719-23.265625-23.261719zm0 0" fill="#fce8cb" fill-rule="evenodd"/><path d="m43.023438 164.203125c-14.484376 0-26.265626 11.78125-26.265626 26.261719 0 14.480468 11.78125 26.261718 26.265626 26.261718 14.480468 0 26.261718-11.78125 26.261718-26.261718 0-14.480469-11.78125-26.261719-26.261718-26.261719zm0 46.523437c-11.175782 0-20.265626-9.089843-20.265626-20.261718s9.089844-20.261719 20.265626-20.261719c11.171874 0 20.261718 9.089844 20.261718 20.261719s-9.089844 20.261718-20.261718 20.261718zm0 0" fill="#3a312a"/><path d="m268.703125 185.09375c-2.953125-12.503906-15.484375-20.246094-27.984375-17.292969-12.503906 2.953125-20.246094 15.480469-17.292969 27.984375 2.949219 12.503906 15.480469 20.246094 27.984375 17.292969 12.5-2.953125 20.242188-15.480469 17.292969-27.984375zm0 0" fill="#fce8cb" fill-rule="evenodd"/><path d="m246.0625 164.203125c-14.476562 0-26.261719 11.78125-26.261719 26.261719 0 14.480468 11.785157 26.261718 26.261719 26.261718 14.484375 0 26.265625-11.78125 26.265625-26.261718 0-14.480469-11.78125-26.261719-26.265625-26.261719zm0 46.523437c-11.171875 0-20.261719-9.089843-20.261719-20.261718s9.089844-20.261719 20.261719-20.261719c11.175781 0 20.265625 9.089844 20.265625 20.261719s-9.089844 20.261718-20.265625 20.261718zm0 0" fill="#3a312a"/><path d="m144.542969 76.046875c-56.957031 0-103.128907 46.171875-103.128907 103.125s57.050782 144.375 103.128907 144.375c48.273437 0 103.125-87.421875 103.125-144.375s-46.171875-103.125-103.125-103.125zm0 0" fill="#fce8cb"/><g fill="#3a312a"><path d="m144.542969 73.046875c-58.519531 0-106.128907 47.609375-106.128907 106.125 0 27.675781 13.34375 64.175781 34.816407 95.253906 22.554687 32.636719 49.210937 52.125 71.3125 52.125 23.265625 0 49.558593-19.003906 72.144531-52.140625 20.957031-30.753906 33.980469-67.246094 33.980469-95.238281.003906-58.515625-47.605469-106.125-106.125-106.125zm67.1875 197.984375c-21.132813 31.007812-46.25 49.519531-67.1875 49.519531-20.128907 0-44.941407-18.519531-66.378907-49.535156-20.816406-30.132813-33.75-65.320313-33.75-91.84375 0-55.210937 44.914063-100.125 100.128907-100.125 55.210937 0 100.128906 44.914063 100.128906 100.125 0 26.847656-12.621094 62.042969-32.941406 91.859375zm0 0"/><path d="m108.132812 167.941406c-5.558593 0-10.066406 4.507813-10.066406 10.066406 0 5.5625 4.507813 10.066407 10.066406 10.066407 5.5625 0 10.066407-4.503907 10.066407-10.066407 0-5.558593-4.507813-10.066406-10.066407-10.066406zm0 0"/><path d="m180.953125 167.941406c-5.5625 0-10.066406 4.507813-10.066406 10.066406 0 5.5625 4.503906 10.066407 10.066406 10.066407 5.558594 0 10.066406-4.503907 10.066406-10.066407 0-5.558593-4.507812-10.066406-10.066406-10.066406zm0 0"/></g><path d="m88.015625 194.972656c-9.574219 0-17.335937 5.804688-17.335937 12.960938 0 7.160156 7.761718 12.964844 17.335937 12.964844 9.578125 0 17.339844-5.804688 17.339844-12.964844 0-7.15625-7.761719-12.960938-17.339844-12.960938zm0 0" fill="#f5978a"/><path d="m201.070312 194.972656c-9.578124 0-17.339843 5.804688-17.339843 12.960938 0 7.160156 7.761719 12.964844 17.339843 12.964844 9.574219 0 17.339844-5.804688 17.339844-12.964844 0-7.15625-7.765625-12.960938-17.339844-12.960938zm0 0" fill="#f5978a"/><path d="m252.472656 155.335938c0-56.359376-47.789062-102.050782-106.738281-102.050782s-106.742187 45.691406-106.742187 102.054688c0 5.960937 1.078124 10.410156 3.085937 15.960937.945313 2.617188 16.230469-5.742187 17.53125-6.660156 6.507813-4.582031 11.824219-10.789063 15.800781-17.65625 1.644532-2.855469 3.015625-5.761719 4.117188-8.664063 3.519531-9.273437 13.078125-35.066406 22.785156-33.042968 13.015625 2.714844 27.769531 4.246094 43.417969 4.246094 15.652343 0 30.40625-1.535157 43.421875-4.246094 9.707031-2.023438 19.269531 23.769531 22.785156 33.042968 1.101562 2.902344 2.472656 5.808594 4.117188 8.664063 6.566406 11.359375 17.660156 22.171875 31.152343 24.136719.03125-.652344.855469-.871094 1.46875-1.09375 4.417969-1.605469 3.796875-11.152344 3.796875-14.691406zm0 0" fill="#87796f"/><path d="m255.484375 156.488281-.011719-1.152343c0-57.921876-49.230468-105.050782-109.742187-105.050782s-109.738281 47.128906-109.738281 105.054688c0 6.617187 1.25 11.40625 3.265624 16.980468.390626 1.082032 1.269532 1.910157 2.414063 2.269532.371094.117187.804687.171875 1.285156.171875 5.707031 0 18.253907-7.578125 18.378907-7.667969 6.511718-4.585938 12.277343-11.019531 16.671874-18.613281 1.695313-2.941407 3.148438-6.003907 4.320313-9.097657l.222656-.582031c10.5625-27.875 16.5-31.128906 19.148438-30.589843 13.714843 2.863281 28.53125 4.3125 44.03125 4.3125 15.496093 0 30.3125-1.449219 44.035156-4.3125 2.589844-.539063 8.570313 2.695312 19.140625 30.578124l.226562.59375c1.171876 3.09375 2.625 6.15625 4.324219 9.105469 8.199219 14.1875 20.652344 23.757813 33.3125 25.605469.832031.117188 1.683594-.117188 2.335938-.652344.207031-.167968.386719-.363281.539062-.578125.03125-.007812.050781-.015625.054688-.015625 5.992187-2.179687 5.855469-11.40625 5.785156-16.359375zm-7.984375 10.769531c-.296875.105469-.828125.292969-1.378906.628907-10.34375-2.117188-20.515625-10.378907-27.464844-22.398438-1.535156-2.667969-2.851562-5.4375-3.910156-8.234375l-.222656-.589844c-6.90625-18.210937-15.421876-36.539062-25.976563-34.324218-13.320313 2.773437-27.722656 4.179687-42.8125 4.179687-15.085937 0-29.488281-1.40625-42.804687-4.179687-10.570313-2.210938-19.078126 16.117187-25.984376 34.335937l-.21875.578125c-1.058593 2.792969-2.375 5.566406-3.90625 8.222656-3.960937 6.84375-9.125 12.621094-14.925781 16.703126-1.789062 1.21875-10.042969 5.457031-13.574219 6.425781-1.449218-4.277344-2.320312-8.179688-2.324218-13.269531 0-54.617188 46.539062-99.050782 103.742187-99.050782s103.738281 44.433594 103.738281 99.050782l.015626 1.238281c.121093 8.625-1.101563 10.363281-1.992188 10.683593zm0 0" fill="#3a312a"/><path d="m84.164062 337.167969 21.054688-15.871094 40.617188 53.894531-21.050782 15.867188zm0 0" fill="#87796f"/><path d="m148.214844 373.394531-40.613282-53.894531c-.480468-.636719-1.195312-1.054688-1.980468-1.164062-.800782-.113282-1.589844.097656-2.222656.578124l-21.050782 15.867188c-.636718.476562-1.054687 1.1875-1.167968 1.976562-.113282.785157.097656 1.585938.574218 2.222657l40.617188 53.894531c.589844.78125 1.488281 1.195312 2.398437 1.195312.628907 0 1.265625-.199218 1.800781-.605468l21.054688-15.867188c1.324219-1 1.585938-2.878906.589844-4.203125zm-22.859375 13.472657-37.003907-49.101563 16.261719-12.257813 37.003907 49.105469zm0 0" fill="#3a312a"/><path d="m145.652344 375.214844 40.621094-53.890625 21.054687 15.867187-40.621094 53.894532zm0 0" fill="#87796f"/><path d="m210.289062 336.757812c-.109374-.789062-.527343-1.5-1.164062-1.980468l-21.054688-15.867188c-.632812-.480468-1.441406-.691406-2.222656-.574218-.789062.109374-1.496094.527343-1.976562 1.164062l-40.617188 53.890625c-.996094 1.324219-.730468 3.207031.59375 4.203125l21.050782 15.867188c.539062.40625 1.171874.605468 1.800781.605468.910156 0 1.808593-.414062 2.398437-1.195312l40.617188-53.894532c.480468-.632812.683594-1.433593.574218-2.21875zm-44.175781 50.109376-16.261719-12.253907 37.003907-49.105469 16.261719 12.257813zm0 0" fill="#3a312a"/><path d="m62.609375 404.378906c-1.65625 0-3 1.34375-3 3v42.347656c0 1.65625 1.34375 3 3 3s3-1.34375 3-3v-42.347656c0-1.65625-1.34375-3-3-3zm0 0" fill="#3a312a"/><path d="m228.859375 404.378906c-1.65625 0-3 1.34375-3 3v42.347656c0 1.65625 1.34375 3 3 3s3-1.34375 3-3v-42.347656c0-1.65625-1.34375-3-3-3zm0 0" fill="#3a312a"/><path d="m143.804688 16.246094c-72.695313 42.765625-114.890626-39.445313-114.890626-1.953125 0 11.847656 4.773438 23.667969 11.042969 34.421875l17.347657 24.59375c17.507812 22.042968 38.449218 45.546875 63.738281 52.734375 40.734375 11.582031 112.835937-2.863281 112.835937-61.496094 0-37.492187-31.425781-82.804687-90.074218-48.300781zm0 0" fill="#87796f"/><path d="m207.070312 7.289062c-12.476562-7.136718-33.851562-11.832031-64.789062 6.371094-42.285156 24.875-73.773438 5.992188-92.589844-5.292968-8.9375-5.359376-14.839844-8.910157-19.4375-6.308594-3.847656 2.179687-4.34375 7.683594-4.34375 12.234375 0 10.960937 3.746094 22.71875 11.453125 35.9375.039063.074219.089844.148437.140625.21875l17.347656 24.59375c.035157.046875.066407.089843.101563.136719 18.753906 23.609374 39.640625 46.46875 65.265625 53.753906 8.613281 2.445312 18.730469 3.789062 29.363281 3.789062 21.640625 0 45.394531-5.566406 62.816407-18.726562 16.011718-12.09375 24.476562-29.195313 24.476562-49.445313.003906-20.019531-9.214844-45.488281-29.804688-57.261719zm1.714844 101.917969c-24.417968 18.441407-62.210937 20.980469-86.921875 13.953125-23.972656-6.8125-44.042969-28.84375-62.15625-51.648437l-17.222656-24.414063c-7.113281-12.234375-10.570313-22.964844-10.570313-32.804687 0-6.207031 1.246094-6.984375 1.300782-7.011719 1.546875-.882812 8.390625 3.230469 13.394531 6.230469 18.648437 11.183593 53.355469 32 98.714844 5.320312 22.523437-13.25 42.847656-15.441406 58.769531-6.335937 18.503906 10.582031 26.785156 33.769531 26.785156 52.050781 0 18.5625-7.433594 33.585937-22.09375 44.660156zm0 0" fill="#3a312a"/><path d="m174.089844 242.277344c-1.554688-.582032-3.285156.207031-3.863282 1.757812-2.046874 5.460938-10.046874 15.789063-25.6875 15.789063-12.21875 0-20.652343-5.242188-25.785156-16.027344-.710937-1.496094-2.503906-2.132813-4-1.421875-1.496094.714844-2.128906 2.503906-1.417968 4 6.140624 12.902344 16.636718 19.449219 31.203124 19.449219 16.441407 0 27.753907-10.207031 31.304688-19.6875.582031-1.546875-.207031-3.277344-1.753906-3.859375zm0 0" fill="#3a312a"/><path d="m140.5 315.933594c-57.710938 0-104.664062-46.953125-104.664062-104.664063 0-1.660156-1.347657-3-3-3-1.65625 0-3 1.339844-3 3 0 61.019531 49.640624 110.664063 110.664062 110.664063 1.65625 0 3-1.339844 3-3 0-1.65625-1.34375-3-3-3zm0 0" fill="#3a312a"/><path d="m158.410156 302.59375h-25.152344c-5.296874 0-9.589843 4.289062-9.589843 9.585938v9.175781c0 5.296875 4.292969 9.589843 9.589843 9.589843h25.152344c5.296875 0 9.589844-4.292968 9.589844-9.589843v-9.175781c0-5.296876-4.292969-9.585938-9.589844-9.585938zm0 0" fill="#d7e057"/><path d="m158.410156 299.59375h-25.152344c-6.945312 0-12.589843 5.644531-12.589843 12.585938v9.175781c0 6.941406 5.644531 12.589843 12.589843 12.589843h25.152344c6.945313 0 12.589844-5.648437 12.589844-12.589843v-9.175781c0-6.941407-5.644531-12.585938-12.589844-12.585938zm6.589844 21.761719c0 3.632812-2.953125 6.589843-6.589844 6.589843h-25.152344c-3.632812 0-6.589843-2.957031-6.589843-6.589843v-9.175781c0-3.632813 2.957031-6.585938 6.589843-6.585938h25.152344c3.632813 0 6.589844 2.953125 6.589844 6.585938zm0 0" fill="#3a312a"/><path d="m37.75 150.933594h-12.25c-12.425781 0-22.5 10.074218-22.5 22.5v.691406h.03125v30.621094c-.007812 0-.019531-.003906-.03125-.003906v.691406c0 12.425781 10.074219 22.5 22.5 22.5h12.25c3.453125 0 6.25-2.796875 6.25-6.25v-64.5c0-3.449219-2.796875-6.25-6.25-6.25zm0 0" fill="#d7e057"/><path d="m37.75 147.933594h-12.25c-14.058594 0-25.5 11.441406-25.5 25.5v.691406c0 1.660156 1.34375 3 3 3 .058594 0 .128906 0 .195312-.003906 1.582032-.085938 2.835938-1.394532 2.835938-2.996094 0-.148438-.007812-.292969-.03125-.433594v-.253906c0-10.753906 8.746094-19.5 19.5-19.5h12.25c1.792969 0 3.25 1.457031 3.25 3.25v64.5c0 1.789062-1.457031 3.25-3.25 3.25h-12.25c-10.753906 0-19.5-8.75-19.5-19.5v-.382812c.011719-.101563.015625-.203126.015625-.308594 0-1.65625-1.359375-3-3.015625-3s-3 1.34375-3 3v.691406c0 14.0625 11.441406 25.5 25.5 25.5h12.25c5.101562 0 9.25-4.148438 9.25-9.25v-64.503906c0-5.097656-4.148438-9.25-9.25-9.25zm0 0" fill="#3a312a"/><path d="m263.992188 150.933594h-12.25c-3.449219 0-6.25 2.800781-6.25 6.25v64.5c0 3.453125 2.800781 6.25 6.25 6.25h12.25c12.429687 0 22.5-10.074219 22.5-22.5v-32c0-12.425782-10.070313-22.5-22.5-22.5zm0 0" fill="#d7e057"/><path d="m263.992188 147.933594h-12.25c-5.101563 0-9.25 4.152344-9.25 9.25v64.5c0 5.101562 4.148437 9.25 9.25 9.25h12.25c14.058593 0 25.5-11.4375 25.5-25.5v-32c0-14.058594-11.4375-25.5-25.5-25.5zm19.5 57.5c0 10.753906-8.75 19.5-19.5 19.5h-12.25c-1.792969 0-3.25-1.457032-3.25-3.25v-64.5c0-1.792969 1.457031-3.25 3.25-3.25h12.25c10.75 0 19.5 8.75 19.5 19.5zm0 0" fill="#3a312a"/><path d="m367.835938 211.144531c-22.101563 0-42.148438 7.703125-56.898438 20.199219l-17.695312 21.933594c-4.757813 9.132812-7.429688 19.28125-7.429688 29.984375 0 18.1875 7.675781 34.792969 20.3125 47.480469l-12.960938 32.660156c-1.242187 3.128906 1.734376 6.289062 4.933594 5.234375l48.058594-15.820313c6.90625 1.660156 14.171875 2.5625 21.675781 2.5625 45.296875 0 82.019531-32.289062 82.019531-72.117187.003907-39.828125-36.71875-72.117188-82.015624-72.117188zm0 0" fill="#8ac6dd"/><path d="m367.835938 208.144531c-22.03125 0-42.925782 7.425781-58.839844 20.910157-1.261719 1.074218-1.417969 2.964843-.347656 4.230468 1.070312 1.261719 2.960937 1.417969 4.226562.347656 14.832031-12.566406 34.347656-19.488281 54.960938-19.488281 43.570312 0 79.019531 31.007813 79.019531 69.121094 0 38.109375-35.449219 69.117187-79.019531 69.117187-7.070313 0-14.128907-.835937-20.972657-2.480468-.542969-.132813-1.113281-.109375-1.640625.066406l-48.058594 15.820312c-.507812.167969-.855468-.089843-1.011718-.257812-.160156-.167969-.394532-.523438-.195313-1.023438l12.957031-32.660156c.441407-1.109375.179688-2.375-.664062-3.222656-12.535156-12.582031-19.4375-28.691406-19.4375-45.363281 0-9.945313 2.386719-19.566407 7.089844-28.597657.769531-1.46875.199218-3.285156-1.273438-4.046874-1.46875-.765626-3.277344-.195313-4.042968 1.273437-5.15625 9.898437-7.773438 20.453125-7.773438 31.375 0 17.644531 7.019531 34.675781 19.808594 48.175781l-12.246094 30.851563c-1.007812 2.546875-.46875 5.363281 1.40625 7.355469 1.351562 1.429687 3.164062 2.195312 5.042969 2.195312.734375 0 1.480469-.117188 2.210937-.355469l47.257813-15.558593c7.042969 1.625 14.285156 2.449218 21.542969 2.449218 46.878906 0 85.019531-33.695312 85.019531-75.117187 0-41.417969-38.140625-75.117188-85.019531-75.117188zm0 0" fill="#3a312a"/><path d="m323.414062 271.425781c-6.847656 0-12.398437 5.546875-12.398437 12.398438 0 6.84375 5.550781 12.394531 12.398437 12.394531 6.847657 0 12.394532-5.546875 12.394532-12.394531 0-6.851563-5.546875-12.398438-12.394532-12.398438zm0 0" fill="#fce8cb"/><path d="m323.410156 268.425781c-8.488281 0-15.394531 6.90625-15.394531 15.398438 0 8.488281 6.90625 15.394531 15.394531 15.394531 8.492188 0 15.398438-6.910156 15.398438-15.394531 0-8.492188-6.90625-15.398438-15.398438-15.398438zm0 24.792969c-5.179687 0-9.394531-4.214844-9.394531-9.394531 0-5.183594 4.214844-9.398438 9.394531-9.398438 5.183594 0 9.398438 4.214844 9.398438 9.398438 0 5.179687-4.214844 9.394531-9.398438 9.394531zm0 0" fill="#3a312a"/><path d="m367.902344 271.425781c-6.847656 0-12.398438 5.546875-12.398438 12.398438 0 6.84375 5.550782 12.394531 12.398438 12.394531 6.84375 0 12.398437-5.546875 12.398437-12.394531-.003906-6.851563-5.554687-12.398438-12.398437-12.398438zm0 0" fill="#fce8cb"/><path d="m367.898438 268.425781c-8.488282 0-15.394532 6.90625-15.394532 15.398438 0 8.488281 6.90625 15.394531 15.394532 15.394531 8.492187 0 15.398437-6.910156 15.398437-15.394531.003906-8.492188-6.90625-15.398438-15.398437-15.398438zm0 24.792969c-5.179688 0-9.394532-4.214844-9.394532-9.394531 0-5.183594 4.214844-9.398438 9.394532-9.398438 5.183593 0 9.398437 4.214844 9.398437 9.398438.003906 5.179687-4.214844 9.394531-9.398437 9.394531zm0 0" fill="#3a312a"/><path d="m412.390625 271.425781c-6.847656 0-12.398437 5.546875-12.398437 12.398438 0 6.84375 5.550781 12.394531 12.398437 12.394531 6.84375 0 12.398437-5.546875 12.398437-12.394531-.003906-6.851563-5.554687-12.398438-12.398437-12.398438zm0 0" fill="#fce8cb"/><path d="m412.386719 268.425781c-8.488281 0-15.394531 6.90625-15.394531 15.398438 0 8.488281 6.90625 15.394531 15.394531 15.394531 8.492187 0 15.398437-6.910156 15.398437-15.394531.003906-8.492188-6.90625-15.398438-15.398437-15.398438zm0 24.792969c-5.179688 0-9.394531-4.214844-9.394531-9.394531 0-5.183594 4.214843-9.398438 9.394531-9.398438 5.183593 0 9.398437 4.214844 9.398437 9.398438.003906 5.179687-4.214844 9.394531-9.398437 9.394531zm0 0" fill="#3a312a"/><path d="m367.832031 214.144531c-5.078125 0-10.121093.421875-15.019531 1.238281 31.019531 5.242188 55.640625 26.363282 62.28125 53.28125 7.199219 1.28125 12.699219 7.582032 12.699219 15.160157 0 7.660156-5.660157 14.058593-13 15.21875-7.0625 26.320312-31.359375 46.902343-61.902344 52.082031 4.921875.839844 9.941406 1.257812 14.941406 1.257812 43.578125 0 79.019531-31 79.019531-69.117187 0-38.121094-35.441406-69.121094-79.019531-69.121094zm0 0" fill="#6ca8bf"/></svg>