<?xml version="1.0" encoding="utf-8"?>
<!-- Generator: Adobe Illustrator 22.0.0, SVG Export Plug-In . SVG Version: 6.00 Build 0)  -->
<svg xmlns="http://www.w3.org/2000/svg" xmlns:xlink="http://www.w3.org/1999/xlink" version="1.1" id="Layer_2" x="0px" y="0px" viewBox="0 0 256 256" style="enable-background:new 0 0 256 256;" xml:space="preserve" width="512" height="512">
<style type="text/css">
	.st0{fill:#87796F;}
	.st1{fill:#3A312A;}
	.st2{fill:#D7E057;}
	.st3{fill:#F16C7A;}
	.st4{fill:#8AC6DD;}
	.st5{fill:#FCE8CB;}
	.st6{fill:#695B51;}
	.st7{fill:#D34E5C;}
	.st8{fill:#6CA8BF;}
	.st9{fill:#B9C239;}
	.st10{fill:#DECAAD;}
	.st11{fill:#B9BC39;}
	.st12{fill-rule:evenodd;clip-rule:evenodd;fill:#87796F;}
	.st13{fill-rule:evenodd;clip-rule:evenodd;fill:#FCE8CB;}
	.st14{fill-rule:evenodd;clip-rule:evenodd;fill:#F16C7A;}
	.st15{fill:#F5978A;}
</style>
<g>
	<g>
		<g>
			<path class="st5" d="M165.991,40.021H35.106c-9.898,0-17.922,8.023-17.922,17.921v163.576c0,9.898,8.024,17.921,17.922,17.921     h130.885c9.898,0,17.921-8.024,17.921-17.921V57.942C183.912,48.044,175.888,40.021,165.991,40.021z"/>
		</g>
	</g>
	<g>
		<g>
			<path class="st1" d="M165.99,38.521H35.106c-10.71,0-19.422,8.713-19.422,19.422v83.652c0,0.828,0.671,1.5,1.5,1.5     s1.5-0.672,1.5-1.5V57.942c0-9.055,7.367-16.422,16.422-16.422H165.99c9.055,0,16.422,7.367,16.422,16.422v163.576     c0,9.055-7.367,16.422-16.422,16.422H35.106c-9.055,0-16.422-7.367-16.422-16.422v-64.613c0-0.828-0.671-1.5-1.5-1.5     s-1.5,0.672-1.5,1.5v64.613c0,10.709,8.712,19.422,19.422,19.422H165.99c10.709,0,19.422-8.713,19.422-19.422V57.942     C185.412,47.233,176.699,38.521,165.99,38.521z"/>
		</g>
	</g>
	<g>
		<g>
			<path class="st0" d="M165.99,40.021H35.106c-9.898,0-17.922,8.024-17.922,17.921V68h166.728V57.942     C183.912,48.045,175.888,40.021,165.99,40.021z"/>
		</g>
	</g>
	<g>
		<g>
			<path class="st1" d="M165.99,38.521H35.106c-10.71,0-19.422,8.713-19.422,19.422V68c0,0.828,0.671,1.5,1.5,1.5h166.728     c0.828,0,1.5-0.672,1.5-1.5V57.942C185.412,47.233,176.699,38.521,165.99,38.521z M182.412,66.5H18.684v-8.558     c0-9.055,7.367-16.422,16.422-16.422H165.99c9.055,0,16.422,7.367,16.422,16.422V66.5z"/>
		</g>
	</g>
	<g>
		<g>
			<path class="st3" d="M71.275,85.177H49.416c-4.175,0-7.56,3.385-7.56,7.56v21.859c0,4.175,3.385,7.56,7.56,7.56h21.859     c4.175,0,7.56-3.385,7.56-7.56V92.737C78.835,88.562,75.451,85.177,71.275,85.177z"/>
		</g>
	</g>
	<g>
		<g>
			<path class="st1" d="M71.275,83.677H49.416c-4.996,0-9.06,4.064-9.06,9.061v21.858c0,4.996,4.064,9.061,9.06,9.061h21.859     c4.996,0,9.06-4.064,9.06-9.061V92.737C80.335,87.741,76.271,83.677,71.275,83.677z M77.335,114.596     c0,3.342-2.719,6.061-6.06,6.061H49.416c-3.341,0-6.06-2.719-6.06-6.061V92.737c0-3.342,2.719-6.061,6.06-6.061h21.859     c3.341,0,6.06,2.719,6.06,6.061V114.596z"/>
		</g>
	</g>
	<g>
		<g>
			<path class="st1" d="M163.535,102.167H93.502c-0.829,0-1.5,0.672-1.5,1.5s0.671,1.5,1.5,1.5h70.033c0.828,0,1.5-0.672,1.5-1.5     S164.363,102.167,163.535,102.167z"/>
		</g>
	</g>
	<g>
		<g>
			<path class="st3" d="M71.275,136.177H49.416c-4.175,0-7.56,3.385-7.56,7.56v21.859c0,4.175,3.385,7.56,7.56,7.56h21.859     c4.175,0,7.56-3.385,7.56-7.56v-21.859C78.835,139.562,75.451,136.177,71.275,136.177z"/>
		</g>
	</g>
	<g>
		<g>
			<path class="st1" d="M71.275,134.677H49.416c-4.996,0-9.06,4.064-9.06,9.061v21.858c0,4.996,4.064,9.061,9.06,9.061h21.859     c4.996,0,9.06-4.064,9.06-9.061v-21.858C80.335,138.741,76.271,134.677,71.275,134.677z M77.335,165.596     c0,3.342-2.719,6.061-6.06,6.061H49.416c-3.341,0-6.06-2.719-6.06-6.061v-21.858c0-3.342,2.719-6.061,6.06-6.061h21.859     c3.341,0,6.06,2.719,6.06,6.061V165.596z"/>
		</g>
	</g>
	<g>
		<g>
			<path class="st1" d="M163.535,153.167H93.502c-0.829,0-1.5,0.672-1.5,1.5s0.671,1.5,1.5,1.5h70.033c0.828,0,1.5-0.672,1.5-1.5     S164.363,153.167,163.535,153.167z"/>
		</g>
	</g>
	<g>
		<g>
			<path class="st3" d="M71.275,187.177H49.416c-4.175,0-7.56,3.385-7.56,7.56v21.859c0,4.175,3.385,7.56,7.56,7.56h21.859     c4.175,0,7.56-3.385,7.56-7.56v-21.859C78.835,190.562,75.451,187.177,71.275,187.177z"/>
		</g>
	</g>
	<g>
		<g>
			<path class="st1" d="M71.275,185.677H49.416c-4.996,0-9.06,4.064-9.06,9.061v21.858c0,4.996,4.064,9.061,9.06,9.061h21.859     c4.996,0,9.06-4.064,9.06-9.061v-21.858C80.335,189.741,76.271,185.677,71.275,185.677z M77.335,216.596     c0,3.342-2.719,6.061-6.06,6.061H49.416c-3.341,0-6.06-2.719-6.06-6.061v-21.858c0-3.342,2.719-6.061,6.06-6.061h21.859     c3.341,0,6.06,2.719,6.06,6.061V216.596z"/>
		</g>
	</g>
	<g>
		<g>
			<path class="st1" d="M163.535,204.167H93.502c-0.829,0-1.5,0.672-1.5,1.5s0.671,1.5,1.5,1.5h70.033c0.828,0,1.5-0.672,1.5-1.5     S164.363,204.167,163.535,204.167z"/>
		</g>
	</g>
	<g>
		<g>
			<path class="st1" d="M73.165,93.125c-0.619-0.551-1.567-0.496-2.118,0.125l-14.142,15.924l-7.455-7.455     c-0.586-0.586-1.535-0.586-2.121,0c-0.586,0.586-0.586,1.535,0,2.121l8.58,8.58c0.282,0.282,0.663,0.439,1.06,0.439     c0.015,0,0.03,0,0.044-0.001c0.413-0.012,0.803-0.194,1.077-0.503L73.29,95.242C73.84,94.623,73.784,93.675,73.165,93.125z"/>
		</g>
	</g>
	<g>
		<g>
			<path class="st1" d="M73.165,143.958c-0.619-0.551-1.567-0.496-2.118,0.125l-14.142,15.924l-7.455-7.455     c-0.586-0.586-1.535-0.586-2.121,0c-0.586,0.586-0.586,1.535,0,2.121l8.58,8.58c0.282,0.282,0.663,0.439,1.06,0.439     c0.015,0,0.03,0,0.044-0.001c0.413-0.012,0.803-0.194,1.077-0.503l15.199-17.113C73.84,145.456,73.784,144.508,73.165,143.958z"/>
		</g>
	</g>
	<g>
		<g>
			<path class="st1" d="M73.165,195.458c-0.619-0.55-1.567-0.496-2.118,0.125l-14.142,15.924l-7.455-7.455     c-0.586-0.586-1.535-0.586-2.121,0c-0.586,0.586-0.586,1.535,0,2.121l8.58,8.58c0.282,0.282,0.663,0.439,1.06,0.439     c0.015,0,0.03,0,0.044-0.001c0.413-0.012,0.803-0.194,1.077-0.503l15.199-17.113C73.84,196.956,73.784,196.008,73.165,195.458z"/>
		</g>
	</g>
	<g>
		<g>
			<path class="st2" d="M221.558,26.237c-0.974,11.563-13.025,13.389-13.025,13.389c10.347,0.487,12.925,14.059,12.925,14.059     c0.221-9.677,13.321-14.202,13.321-14.202C224.967,38.896,221.558,26.237,221.558,26.237z"/>
		</g>
	</g>
	<g>
		<g>
			<path class="st1" d="M234.87,37.986c-8.604-0.515-11.832-12.025-11.863-12.142c-0.19-0.702-0.846-1.161-1.584-1.102     c-0.725,0.066-1.298,0.642-1.359,1.367c-0.859,10.216-11.312,11.964-11.754,12.032c-0.763,0.116-1.313,0.791-1.273,1.561     c0.04,0.771,0.657,1.385,1.428,1.421c9.027,0.426,11.498,12.719,11.521,12.843c0.138,0.712,0.76,1.218,1.473,1.218     c0.042,0,0.084-0.002,0.126-0.005c0.765-0.064,1.357-0.693,1.375-1.46c0.193-8.509,12.191-12.777,12.312-12.819     c0.676-0.234,1.092-0.914,0.994-1.622C236.168,38.569,235.584,38.028,234.87,37.986z M221.304,48.331     c-1.356-3.13-3.708-6.907-7.586-8.876c2.931-1.404,6.408-3.913,8.201-8.272c1.551,3.07,4.199,6.88,8.334,8.722     C227.245,41.545,223.33,44.31,221.304,48.331z"/>
		</g>
	</g>
	<g>
		<g>
			<path class="st2" d="M199.859,43.217c-0.689,8.179-9.213,9.471-9.213,9.471c7.318,0.344,9.142,9.944,9.142,9.944     c0.156-6.845,9.422-10.045,9.422-10.045C202.27,52.171,199.859,43.217,199.859,43.217z"/>
		</g>
	</g>
	<g>
		<g>
			<path class="st1" d="M209.302,51.09c-5.767-0.346-7.973-8.187-7.995-8.266c-0.189-0.702-0.861-1.164-1.581-1.102     c-0.726,0.065-1.3,0.643-1.361,1.368c-0.578,6.871-7.646,8.066-7.941,8.113c-0.763,0.116-1.313,0.791-1.273,1.561     c0.04,0.771,0.657,1.385,1.428,1.421c6.035,0.284,7.723,8.645,7.738,8.727c0.136,0.712,0.759,1.22,1.473,1.22     c0.041,0,0.083-0.002,0.124-0.005c0.766-0.063,1.359-0.693,1.377-1.461c0.13-5.709,8.332-8.633,8.412-8.661     c0.677-0.233,1.094-0.913,0.997-1.622C210.601,51.674,210.016,51.133,209.302,51.09z M199.717,57.884     c-0.924-1.886-2.34-3.947-4.447-5.279c1.856-1.041,3.697-2.63,4.87-4.917c1.058,1.874,2.655,3.955,4.942,5.225     C203.231,54.012,201.093,55.652,199.717,57.884z"/>
		</g>
	</g>
	<g>
		<g>
			<path class="st2" d="M199.859,16.56c-0.689,8.179-9.213,9.47-9.213,9.47c7.318,0.344,9.142,9.944,9.142,9.944     c0.156-6.845,9.422-10.045,9.422-10.045C202.27,25.514,199.859,16.56,199.859,16.56z"/>
		</g>
	</g>
	<g>
		<g>
			<path class="st1" d="M209.302,24.432c-5.767-0.345-7.973-8.186-7.995-8.265c-0.189-0.702-0.861-1.163-1.581-1.102     c-0.726,0.065-1.3,0.643-1.361,1.368c-0.578,6.871-7.646,8.066-7.941,8.113c-0.763,0.116-1.313,0.791-1.273,1.561     c0.04,0.771,0.657,1.385,1.428,1.421c6.035,0.284,7.723,8.645,7.738,8.727c0.136,0.712,0.759,1.22,1.473,1.22     c0.041,0,0.083-0.002,0.124-0.005c0.766-0.063,1.359-0.693,1.377-1.461c0.13-5.709,8.332-8.634,8.413-8.662     c0.676-0.233,1.093-0.913,0.996-1.622C210.601,25.016,210.016,24.474,209.302,24.432z M199.717,31.227     c-0.924-1.886-2.34-3.947-4.447-5.279c1.856-1.041,3.697-2.63,4.87-4.917c1.058,1.874,2.655,3.954,4.941,5.224     C203.231,27.354,201.093,28.994,199.717,31.227z"/>
		</g>
	</g>
	<g>
		<g>
			<path class="st2" d="M232.333,224H165c-3.774,0-6.833,3.059-6.833,6.833v1.333c0,3.774,3.059,6.833,6.833,6.833h67.333     c3.774,0,6.833-3.059,6.833-6.833v-1.333C239.167,227.059,236.107,224,232.333,224z"/>
		</g>
	</g>
	<g>
		<g>
			<path class="st1" d="M232.333,222.5H165c-4.595,0-8.333,3.738-8.333,8.333v1.334c0,4.595,3.738,8.333,8.333,8.333h67.333     c4.596,0,8.334-3.738,8.334-8.333v-1.334C240.667,226.238,236.929,222.5,232.333,222.5z M237.667,232.167     c0,2.94-2.393,5.333-5.334,5.333H165c-2.94,0-5.333-2.393-5.333-5.333v-1.334c0-2.94,2.393-5.333,5.333-5.333h67.333     c2.941,0,5.334,2.393,5.334,5.333V232.167z"/>
		</g>
	</g>
	<g>
		<g>
			<path class="st2" d="M232.333,209H165c-3.774,0-6.833,3.059-6.833,6.833v1.333c0,3.774,3.059,6.833,6.833,6.833h67.333     c3.774,0,6.833-3.059,6.833-6.833v-1.333C239.167,212.059,236.107,209,232.333,209z"/>
		</g>
	</g>
	<g>
		<g>
			<path class="st1" d="M232.333,207.5H165c-4.595,0-8.333,3.738-8.333,8.333v1.334c0,4.595,3.738,8.333,8.333,8.333h67.333     c4.596,0,8.334-3.738,8.334-8.333v-1.334C240.667,211.238,236.929,207.5,232.333,207.5z M237.667,217.167     c0,2.94-2.393,5.333-5.334,5.333H165c-2.94,0-5.333-2.393-5.333-5.333v-1.334c0-2.94,2.393-5.333,5.333-5.333h67.333     c2.941,0,5.334,2.393,5.334,5.333V217.167z"/>
		</g>
	</g>
	<g>
		<g>
			<path class="st2" d="M232.333,194H165c-3.774,0-6.833,3.059-6.833,6.833v1.333c0,3.774,3.059,6.833,6.833,6.833h67.333     c3.774,0,6.833-3.059,6.833-6.833v-1.333C239.167,197.059,236.107,194,232.333,194z"/>
		</g>
	</g>
	<g>
		<g>
			<path class="st1" d="M232.333,192.5H165c-4.595,0-8.333,3.738-8.333,8.333v1.334c0,4.595,3.738,8.333,8.333,8.333h67.333     c4.596,0,8.334-3.738,8.334-8.333v-1.334C240.667,196.238,236.929,192.5,232.333,192.5z M237.667,202.167     c0,2.94-2.393,5.333-5.334,5.333H165c-2.94,0-5.333-2.393-5.333-5.333v-1.334c0-2.94,2.393-5.333,5.333-5.333h67.333     c2.941,0,5.334,2.393,5.334,5.333V202.167z"/>
		</g>
	</g>
	<g>
		<g>
			<circle class="st2" cx="198.667" cy="152.667" r="40.5"/>
		</g>
	</g>
	<g>
		<g>
			<path class="st1" d="M198.667,110.667c-23.159,0-42,18.841-42,42s18.841,42,42,42c23.159,0,42-18.841,42-42     S221.826,110.667,198.667,110.667z M198.667,191.667c-21.505,0-39-17.495-39-39s17.495-39,39-39c21.505,0,39,17.495,39,39     S220.172,191.667,198.667,191.667z"/>
		</g>
	</g>
	<g>
		<g>
			<path class="st0" d="M203.482,148.087c-5.898-2.22-8.328-3.677-8.328-5.968c0-1.942,1.457-3.886,5.968-3.886     c4.996,0,8.188,1.595,9.992,2.359l2.013-7.841c-2.29-1.111-5.413-2.083-10.062-2.29v-6.107h-6.801v6.592     c-7.425,1.457-11.727,6.245-11.727,12.352c0,6.731,5.065,10.202,12.49,12.699c5.135,1.735,7.356,3.401,7.356,6.037     c0,2.777-2.707,4.303-6.662,4.303c-4.511,0-8.605-1.457-11.519-3.053l-2.082,8.118c2.637,1.526,7.147,2.775,11.796,2.984v6.592     h6.8V173.9c7.98-1.387,12.352-6.661,12.352-12.837C215.07,154.818,211.739,151.001,203.482,148.087z"/>
		</g>
	</g>
	<g>
		<g>
			<path class="st1" d="M204.01,146.683c-5.362-2.018-7.355-3.254-7.355-4.563c0-2.076,2.799-2.386,4.468-2.386     c4.246,0,7.039,1.214,8.888,2.017l0.52,0.224c0.404,0.173,0.859,0.157,1.25-0.036c0.392-0.194,0.68-0.549,0.788-0.972     l2.013-7.841c0.177-0.691-0.157-1.411-0.799-1.723c-2.651-1.285-5.677-2.058-9.216-2.349v-4.699c0-0.828-0.672-1.5-1.5-1.5     h-6.801c-0.828,0-1.5,0.672-1.5,1.5v5.392c-7.268,1.847-11.728,6.952-11.728,13.553c0,8.488,7.222,12.005,13.511,14.12     c5.568,1.881,6.336,3.33,6.336,4.615c0,2.602-3.951,2.804-5.162,2.804c-4.835,0-8.841-1.797-10.799-2.868     c-0.405-0.223-0.891-0.245-1.317-0.061c-0.425,0.185-0.74,0.555-0.855,1.003l-2.082,8.118c-0.167,0.651,0.12,1.334,0.701,1.671     c2.721,1.575,6.854,2.72,11.048,3.089v5.188c0,0.828,0.672,1.5,1.5,1.5h6.801c0.828,0,1.5-0.672,1.5-1.5v-5.853     c7.548-1.762,12.352-7.173,12.352-14.062C216.57,154.091,212.805,149.786,204.01,146.683z M202.461,172.423     c-0.719,0.125-1.243,0.748-1.243,1.478v5.578h-3.801v-5.092c0-0.802-0.631-1.463-1.433-1.498     c-3.659-0.165-7.48-1.033-10.114-2.266l1.324-5.167c2.468,1.125,6.195,2.382,10.527,2.382c5.034,0,8.162-2.224,8.162-5.804     c0-4.067-4.025-5.988-8.377-7.458c-8.04-2.703-11.47-6.076-11.47-11.277c0-5.52,3.932-9.588,10.517-10.881     c0.703-0.138,1.211-0.755,1.211-1.472v-5.092h3.801v4.607c0,0.803,0.632,1.463,1.434,1.498c3.23,0.145,5.979,0.685,8.359,1.647     l-1.263,4.92c-1.996-0.817-4.932-1.794-8.974-1.794c-6.93,0-7.468,4.122-7.468,5.386c0,3.587,4.03,5.389,9.328,7.382     c7.619,2.689,10.588,5.931,10.588,11.562C213.57,166.879,209.313,171.231,202.461,172.423z"/>
		</g>
	</g>
	<g>
		<g>
			<path class="st11" d="M232.33,225.5h-9c2.94,0,5.34,2.39,5.34,5.33v1.34c0,2.94-2.4,5.33-5.34,5.33h9c2.94,0,5.34-2.39,5.34-5.33     v-1.34C237.67,227.89,235.27,225.5,232.33,225.5z"/>
		</g>
	</g>
	<g>
		<g>
			<path class="st11" d="M232.33,210.5h-9c2.94,0,5.34,2.39,5.34,5.33v1.34c0,2.94-2.4,5.33-5.34,5.33h9c2.94,0,5.34-2.39,5.34-5.33     v-1.34C237.67,212.89,235.27,210.5,232.33,210.5z"/>
		</g>
	</g>
	<g>
		<g>
			<path class="st11" d="M232.33,195.5h-9c2.94,0,5.34,2.39,5.34,5.33v1.34c0,2.94-2.4,5.33-5.34,5.33h9c2.94,0,5.34-2.39,5.34-5.33     v-1.34C237.67,197.89,235.27,195.5,232.33,195.5z"/>
		</g>
	</g>
	<g>
		<g>
			<path class="st11" d="M198.67,113.67c-1.52,0-3.02,0.09-4.5,0.26c19.39,2.24,34.5,18.75,34.5,38.74     c0,19.98-15.11,36.5-34.5,38.74c1.48,0.17,2.98,0.26,4.5,0.26c21.5,0,39-17.5,39-39C237.67,131.16,220.17,113.67,198.67,113.67z"/>
		</g>
	</g>
	<g>
		<g>
			<path class="st4" d="M129.461,37.589c0.187-2.443,0.763-4.79,1.668-6.969H71.533c1.332,3.193,1.952,6.755,1.668,10.492     c-0.188,2.444-0.763,4.79-1.668,6.962h59.596C129.803,44.88,129.183,41.319,129.461,37.589z"/>
		</g>
	</g>
	<g>
		<g>
			<path class="st1" d="M130.957,37.704c0.172-2.246,0.696-4.436,1.557-6.509c0.192-0.463,0.142-0.991-0.137-1.408     c-0.278-0.417-0.747-0.667-1.248-0.667h-13.071c-0.829,0-1.5,0.672-1.5,1.5s0.671,1.5,1.5,1.5h10.933     c-0.542,1.736-0.885,3.529-1.025,5.357c-0.233,3.125,0.111,6.175,1.024,9.097H73.672c0.541-1.731,0.884-3.521,1.024-5.348     c0.239-3.132-0.105-6.185-1.021-9.106h30.92c0.829,0,1.5-0.672,1.5-1.5s-0.671-1.5-1.5-1.5H71.533     c-0.501,0-0.97,0.251-1.248,0.668c-0.278,0.418-0.33,0.946-0.136,1.409c1.292,3.099,1.816,6.396,1.557,9.8     c-0.172,2.249-0.696,4.436-1.557,6.5c-0.193,0.463-0.142,0.992,0.137,1.409c0.278,0.417,0.747,0.668,1.248,0.668h59.596     c0.501,0,0.969-0.25,1.247-0.667s0.33-0.945,0.139-1.408C131.227,44.397,130.703,41.101,130.957,37.704z"/>
		</g>
	</g>
	<g>
		<g>
			<path class="st4" d="M148.166,44.987V33.713c0-1.862,1.509-3.371,3.371-3.371h21.587c-3.763-8.737-12.83-14.649-23.15-13.678     c-10.949,1.03-19.684,9.956-20.509,20.922c-1.007,13.381,9.55,24.555,22.719,24.555c9.39,0,17.449-5.675,20.941-13.782h-21.587     C149.675,48.358,148.166,46.849,148.166,44.987z"/>
		</g>
	</g>
	<g>
		<g>
			<path class="st1" d="M173.124,46.858h-21.587c-1.031,0-1.871-0.84-1.871-1.871V33.713c0-1.031,0.84-1.871,1.871-1.871h21.587     c0.505,0,0.976-0.254,1.253-0.676c0.277-0.421,0.324-0.954,0.125-1.418c-4.186-9.714-14.109-15.572-24.669-14.577     c-11.59,1.089-20.99,10.678-21.865,22.303c-0.516,6.851,1.76,13.383,6.408,18.394c4.583,4.94,11.073,7.773,17.807,7.773     c9.715,0,18.476-5.766,22.319-14.688c0.199-0.464,0.152-0.997-0.125-1.418C174.1,47.112,173.629,46.858,173.124,46.858z      M152.183,60.641c-5.901,0-11.59-2.483-15.606-6.813c-4.074-4.392-6.068-10.12-5.616-16.129     c0.767-10.186,9.001-18.586,19.154-19.541c0.684-0.064,1.364-0.096,2.04-0.096c7.708,0,14.775,4.115,18.552,10.78h-19.169     c-2.686,0-4.871,2.186-4.871,4.871v11.274c0,2.686,2.186,4.871,4.871,4.871h19.169C166.952,56.477,159.912,60.641,152.183,60.641     z"/>
		</g>
	</g>
	<g>
		<g>
			<path class="st4" d="M50.484,16.56c-9.39,0-17.449,5.675-20.941,13.782H51.13c1.862,0,3.371,1.509,3.371,3.371v11.274     c0,1.862-1.509,3.371-3.371,3.371H29.543c3.763,8.737,12.83,14.649,23.15,13.678c10.948-1.03,19.684-9.956,20.509-20.922     C74.21,27.733,63.652,16.56,50.484,16.56z"/>
		</g>
	</g>
	<g>
		<g>
			<path class="st1" d="M68.29,22.833c-4.582-4.94-11.073-7.773-17.807-7.773c-9.714,0-18.475,5.766-22.318,14.688     c-0.2,0.464-0.153,0.997,0.125,1.418c0.277,0.422,0.748,0.676,1.253,0.676H51.13c1.032,0,1.871,0.84,1.871,1.871v11.274     c0,1.031-0.839,1.871-1.871,1.871H29.543c-0.505,0-0.976,0.254-1.253,0.676c-0.277,0.421-0.324,0.954-0.125,1.418     c3.875,8.997,12.666,14.687,22.342,14.687c0.771,0,1.546-0.036,2.326-0.109c11.59-1.089,20.99-10.678,21.864-22.303     C75.214,34.376,72.938,27.844,68.29,22.833z M71.707,41.002c-0.767,10.186-9.001,18.586-19.154,19.541     c-8.476,0.802-16.484-3.435-20.592-10.685H51.13c2.686,0,4.871-2.186,4.871-4.871V33.713c0-2.686-2.185-4.871-4.871-4.871H31.961     c3.753-6.618,10.794-10.782,18.523-10.782c5.902,0,11.59,2.483,15.607,6.813C70.165,29.265,72.159,34.993,71.707,41.002z"/>
		</g>
	</g>
</g>
</svg>
