<?xml version="1.0" encoding="iso-8859-1"?>
<!-- Generator: Adobe Illustrator 19.0.0, SVG Export Plug-In . SVG Version: 6.00 Build 0)  -->
<svg version="1.1" id="Capa_1" xmlns="http://www.w3.org/2000/svg" xmlns:xlink="http://www.w3.org/1999/xlink" x="0px" y="0px"
	 viewBox="0 0 512 512" style="enable-background:new 0 0 512 512;" xml:space="preserve">
<g>
	<path style="fill:#2980BA;" d="M317.793,335.448h167.724c7.027,0.009,13.768-2.778,18.736-7.746
		c4.969-4.969,7.756-11.71,7.746-18.736V44.138c0.009-7.027-2.778-13.768-7.746-18.737s-11.71-7.756-18.736-7.746H26.483
		c-7.027-0.009-13.768,2.778-18.737,7.746S-0.009,37.111,0,44.138v264.828c-0.009,7.027,2.778,13.768,7.746,18.736
		c4.969,4.969,11.71,7.756,18.737,7.746h167.724"/>
	<g>
		<path style="fill:#E64C3C;" d="M467.862,300.138h-44.138c-4.875,0-8.828-3.952-8.828-8.828s3.952-8.828,8.828-8.828h44.138
			c4.875,0,8.828,3.952,8.828,8.828S472.737,300.138,467.862,300.138z"/>
		<path style="fill:#E64C3C;" d="M467.862,264.828h-61.793c-4.875,0-8.828-3.952-8.828-8.828s3.952-8.828,8.828-8.828h61.793
			c4.875,0,8.828,3.952,8.828,8.828S472.737,264.828,467.862,264.828z"/>
	</g>
	<rect x="0" y="70.621" style="fill:#2C2F38;" width="512" height="52.966"/>
	<g>
		<path style="fill:#D1D4D1;" d="M52.966,247.172h35.31c9.751,0,17.655,7.904,17.655,17.655v17.655
			c0,9.751-7.904,17.655-17.655,17.655h-35.31c-9.751,0-17.655-7.904-17.655-17.655v-17.655
			C35.31,255.077,43.215,247.172,52.966,247.172z"/>
		<path style="fill:#D1D4D1;" d="M44.138,158.897h220.69c4.875,0,8.828,3.952,8.828,8.828v17.655c0,4.875-3.952,8.828-8.828,8.828
			H44.138c-4.875,0-8.828-3.952-8.828-8.828v-17.655C35.31,162.849,39.263,158.897,44.138,158.897z"/>
	</g>
	<path style="fill:#24AE5F;" d="M356.075,275.635c3.554,1.686,5.83,5.258,5.856,9.192v53.95
		c-0.629,49.258-23.952,95.47-63.206,125.235l-34.901,27.629c-4.593,3.605-11.055,3.605-15.648,0l-34.901-27.629
		c-39.253-29.765-62.577-75.977-63.206-125.235v-53.95c0.026-3.934,2.302-7.506,5.856-9.192l90.601-43.948
		c5.985-2.893,12.964-2.893,18.95,0L356.075,275.635z"/>
	<circle style="fill:#FFFFFF;" cx="256" cy="353.103" r="61.793"/>
	<path style="fill:#24AE5F;" d="M247.172,379.586c-2.341,0.001-4.587-0.93-6.241-2.586l-8.828-8.828
		c-3.394-3.456-3.369-9.001,0.056-12.426c3.425-3.425,8.97-3.45,12.426-0.056l1.629,1.629l20.379-27.164
		c1.891-2.522,4.984-3.844,8.114-3.468s5.821,2.394,7.06,5.293c1.239,2.899,0.837,6.239-1.054,8.761l-26.483,35.31
		c-1.534,2.049-3.882,3.329-6.435,3.509C247.59,379.577,247.379,379.586,247.172,379.586z"/>
</g>
<g>
</g>
<g>
</g>
<g>
</g>
<g>
</g>
<g>
</g>
<g>
</g>
<g>
</g>
<g>
</g>
<g>
</g>
<g>
</g>
<g>
</g>
<g>
</g>
<g>
</g>
<g>
</g>
<g>
</g>
</svg>
