<?xml version="1.0" encoding="iso-8859-1"?>
<!-- Generator: Adobe Illustrator 19.0.0, SVG Export Plug-In . SVG Version: 6.00 Build 0)  -->
<svg version="1.1" id="Layer_1" xmlns="http://www.w3.org/2000/svg" xmlns:xlink="http://www.w3.org/1999/xlink" x="0px" y="0px"
	 viewBox="0 0 512 512" style="enable-background:new 0 0 512 512;" xml:space="preserve">
<g>
	<rect x="17.655" y="256" style="fill:#707487;" width="238.34" height="247.17"/>
	<rect x="361.93" y="406.07" style="fill:#707487;" width="132.41" height="97.1"/>
</g>
<g>
	<path style="fill:#5B5D6E;" d="M361.931,353.103h120.405c1.9,0,3.586,1.216,4.188,3.018l14.712,44.138
		c0.952,2.858-1.174,5.81-4.188,5.81H361.931V353.103z"/>
	<path style="fill:#5B5D6E;" d="M392.828,423.724h79.448c2.438,0,4.414,1.976,4.414,4.414v75.034h-88.276v-75.034
		C388.414,425.7,390.39,423.724,392.828,423.724z"/>
</g>
<rect x="247.17" y="167.72" style="fill:#8F96AC;" width="123.59" height="335.45"/>
<path style="fill:#5B5D6E;" d="M13.241,264.828h233.931v-17.655H13.241c-2.438,0-4.414,1.976-4.414,4.414v8.828
	C8.828,262.851,10.804,264.828,13.241,264.828z"/>
<path style="fill:#B4E1FA;" d="M39.724,335.448h44.138c2.438,0,4.414-1.976,4.414-4.414v-44.138c0-2.438-1.976-4.414-4.414-4.414
	H39.724c-2.438,0-4.414,1.976-4.414,4.414v44.138C35.31,333.472,37.287,335.448,39.724,335.448z"/>
<path style="fill:#DAF0FD;" d="M83.862,282.483H61.871l26.404,46.207v-41.793C88.276,284.459,86.3,282.483,83.862,282.483z"/>
<g>
	<path style="fill:#A0D2F0;" d="M83.862,282.483H39.724c-2.438,0-4.414,1.976-4.414,4.414v13.241h52.966v-13.241
		C88.276,284.459,86.3,282.483,83.862,282.483z"/>
	<path style="fill:#A0D2F0;" d="M35.31,286.897v44.138c0,2.438,1.976,4.414,4.414,4.414h24.828l-28.557-50.77
		C35.598,285.34,35.31,286.07,35.31,286.897z"/>
</g>
<g>
	<path style="fill:#B4E1FA;" d="M83.862,282.483H61.871l10.089,17.655h16.316v-13.241C88.276,284.459,86.3,282.483,83.862,282.483z"
		/>
	<path style="fill:#B4E1FA;" d="M110.345,335.448h44.138c2.438,0,4.414-1.976,4.414-4.414v-44.138c0-2.438-1.976-4.414-4.414-4.414
		h-44.138c-2.438,0-4.414,1.976-4.414,4.414v44.138C105.931,333.472,107.907,335.448,110.345,335.448z"/>
</g>
<path style="fill:#DAF0FD;" d="M154.483,282.483h-21.991l26.404,46.207v-41.793C158.897,284.459,156.92,282.483,154.483,282.483z"/>
<g>
	<path style="fill:#A0D2F0;" d="M154.483,282.483h-44.138c-2.438,0-4.414,1.976-4.414,4.414v13.241h52.966v-13.241
		C158.897,284.459,156.92,282.483,154.483,282.483z"/>
	<path style="fill:#A0D2F0;" d="M105.931,286.897v44.138c0,2.438,1.976,4.414,4.414,4.414h24.828l-28.557-50.77
		C106.219,285.34,105.931,286.07,105.931,286.897z"/>
</g>
<g>
	<path style="fill:#B4E1FA;" d="M154.483,282.483h-21.991l10.089,17.655h16.316v-13.241
		C158.897,284.459,156.92,282.483,154.483,282.483z"/>
	<path style="fill:#B4E1FA;" d="M180.966,335.448h44.138c2.438,0,4.414-1.976,4.414-4.414v-44.138c0-2.438-1.976-4.414-4.414-4.414
		h-44.138c-2.438,0-4.414,1.976-4.414,4.414v44.138C176.552,333.472,178.528,335.448,180.966,335.448z"/>
</g>
<path style="fill:#DAF0FD;" d="M225.103,282.483h-21.991l26.404,46.207v-41.793C229.517,284.459,227.541,282.483,225.103,282.483z"
	/>
<g>
	<path style="fill:#A0D2F0;" d="M225.103,282.483h-44.138c-2.438,0-4.414,1.976-4.414,4.414v13.241h52.966v-13.241
		C229.517,284.459,227.541,282.483,225.103,282.483z"/>
	<path style="fill:#A0D2F0;" d="M176.552,286.897v44.138c0,2.438,1.976,4.414,4.414,4.414h24.828l-28.557-50.77
		C176.84,285.34,176.552,286.07,176.552,286.897z"/>
</g>
<g>
	<path style="fill:#B4E1FA;" d="M225.103,282.483h-21.991l10.089,17.655h16.316v-13.241
		C229.517,284.459,227.541,282.483,225.103,282.483z"/>
	<path style="fill:#B4E1FA;" d="M39.724,406.069h44.138c2.438,0,4.414-1.976,4.414-4.414v-44.138c0-2.438-1.976-4.414-4.414-4.414
		H39.724c-2.438,0-4.414,1.976-4.414,4.414v44.138C35.31,404.093,37.287,406.069,39.724,406.069z"/>
</g>
<path style="fill:#DAF0FD;" d="M83.862,353.103H61.871l26.404,46.207v-41.793C88.276,355.08,86.3,353.103,83.862,353.103z"/>
<g>
	<path style="fill:#A0D2F0;" d="M83.862,353.103H39.724c-2.438,0-4.414,1.976-4.414,4.414v13.241h52.966v-13.241
		C88.276,355.08,86.3,353.103,83.862,353.103z"/>
	<path style="fill:#A0D2F0;" d="M35.31,357.517v44.138c0,2.438,1.976,4.414,4.414,4.414h24.828l-28.557-50.77
		C35.598,355.96,35.31,356.691,35.31,357.517z"/>
</g>
<g>
	<path style="fill:#B4E1FA;" d="M83.862,353.103H61.871l10.089,17.655h16.316v-13.241C88.276,355.08,86.3,353.103,83.862,353.103z"
		/>
	<path style="fill:#B4E1FA;" d="M110.345,406.069h44.138c2.438,0,4.414-1.976,4.414-4.414v-44.138c0-2.438-1.976-4.414-4.414-4.414
		h-44.138c-2.438,0-4.414,1.976-4.414,4.414v44.138C105.931,404.093,107.907,406.069,110.345,406.069z"/>
</g>
<path style="fill:#DAF0FD;" d="M154.483,353.103h-21.991l26.404,46.207v-41.793C158.897,355.08,156.92,353.103,154.483,353.103z"/>
<g>
	<path style="fill:#A0D2F0;" d="M154.483,353.103h-44.138c-2.438,0-4.414,1.976-4.414,4.414v13.241h52.966v-13.241
		C158.897,355.08,156.92,353.103,154.483,353.103z"/>
	<path style="fill:#A0D2F0;" d="M105.931,357.517v44.138c0,2.438,1.976,4.414,4.414,4.414h24.828l-28.557-50.77
		C106.219,355.96,105.931,356.691,105.931,357.517z"/>
</g>
<g>
	<path style="fill:#B4E1FA;" d="M154.483,353.103h-21.991l10.089,17.655h16.316v-13.241
		C158.897,355.08,156.92,353.103,154.483,353.103z"/>
	<path style="fill:#B4E1FA;" d="M180.966,406.069h44.138c2.438,0,4.414-1.976,4.414-4.414v-44.138c0-2.438-1.976-4.414-4.414-4.414
		h-44.138c-2.438,0-4.414,1.976-4.414,4.414v44.138C176.552,404.093,178.528,406.069,180.966,406.069z"/>
</g>
<path style="fill:#DAF0FD;" d="M225.103,353.103h-21.991l26.404,46.207v-41.793C229.517,355.08,227.541,353.103,225.103,353.103z"/>
<g>
	<path style="fill:#A0D2F0;" d="M225.103,353.103h-44.138c-2.438,0-4.414,1.976-4.414,4.414v13.241h52.966v-13.241
		C229.517,355.08,227.541,353.103,225.103,353.103z"/>
	<path style="fill:#A0D2F0;" d="M176.552,357.517v44.138c0,2.438,1.976,4.414,4.414,4.414h24.828l-28.557-50.77
		C176.84,355.96,176.552,356.691,176.552,357.517z"/>
</g>
<g>
	<path style="fill:#B4E1FA;" d="M225.103,353.103h-21.991l10.089,17.655h16.316v-13.241
		C229.517,355.08,227.541,353.103,225.103,353.103z"/>
	<path style="fill:#B4E1FA;" d="M39.724,476.69h44.138c2.438,0,4.414-1.976,4.414-4.414v-44.138c0-2.438-1.976-4.414-4.414-4.414
		H39.724c-2.438,0-4.414,1.976-4.414,4.414v44.138C35.31,474.713,37.287,476.69,39.724,476.69z"/>
</g>
<path style="fill:#DAF0FD;" d="M83.862,423.724H61.871l26.404,46.207v-41.793C88.276,425.7,86.3,423.724,83.862,423.724z"/>
<g>
	<path style="fill:#A0D2F0;" d="M83.862,423.724H39.724c-2.438,0-4.414,1.976-4.414,4.414v13.241h52.966v-13.241
		C88.276,425.7,86.3,423.724,83.862,423.724z"/>
	<path style="fill:#A0D2F0;" d="M35.31,428.138v44.138c0,2.438,1.976,4.414,4.414,4.414h24.828l-28.557-50.77
		C35.598,426.581,35.31,427.311,35.31,428.138z"/>
</g>
<g>
	<path style="fill:#B4E1FA;" d="M83.862,423.724H61.871l10.089,17.655h16.316v-13.241C88.276,425.7,86.3,423.724,83.862,423.724z"/>
	<path style="fill:#B4E1FA;" d="M110.345,476.69h44.138c2.438,0,4.414-1.976,4.414-4.414v-44.138c0-2.438-1.976-4.414-4.414-4.414
		h-44.138c-2.438,0-4.414,1.976-4.414,4.414v44.138C105.931,474.713,107.907,476.69,110.345,476.69z"/>
</g>
<path style="fill:#DAF0FD;" d="M154.483,423.724h-21.991l26.404,46.207v-41.793C158.897,425.7,156.92,423.724,154.483,423.724z"/>
<g>
	<path style="fill:#A0D2F0;" d="M154.483,423.724h-44.138c-2.438,0-4.414,1.976-4.414,4.414v13.241h52.966v-13.241
		C158.897,425.7,156.92,423.724,154.483,423.724z"/>
	<path style="fill:#A0D2F0;" d="M105.931,428.138v44.138c0,2.438,1.976,4.414,4.414,4.414h24.828l-28.557-50.77
		C106.219,426.581,105.931,427.311,105.931,428.138z"/>
</g>
<g>
	<path style="fill:#B4E1FA;" d="M154.483,423.724h-21.991l10.089,17.655h16.316v-13.241
		C158.897,425.7,156.92,423.724,154.483,423.724z"/>
	<path style="fill:#B4E1FA;" d="M180.966,476.69h44.138c2.438,0,4.414-1.976,4.414-4.414v-44.138c0-2.438-1.976-4.414-4.414-4.414
		h-44.138c-2.438,0-4.414,1.976-4.414,4.414v44.138C176.552,474.713,178.528,476.69,180.966,476.69z"/>
</g>
<path style="fill:#DAF0FD;" d="M225.103,423.724h-21.991l26.404,46.207v-41.793C229.517,425.7,227.541,423.724,225.103,423.724z"/>
<g>
	<path style="fill:#A0D2F0;" d="M225.103,423.724h-44.138c-2.438,0-4.414,1.976-4.414,4.414v13.241h52.966v-13.241
		C229.517,425.7,227.541,423.724,225.103,423.724z"/>
	<path style="fill:#A0D2F0;" d="M176.552,428.138v44.138c0,2.438,1.976,4.414,4.414,4.414h24.828l-28.557-50.77
		C176.84,426.581,176.552,427.311,176.552,428.138z"/>
</g>
<path style="fill:#B4E1FA;" d="M225.103,423.724h-21.991l10.089,17.655h16.316v-13.241
	C229.517,425.7,227.541,423.724,225.103,423.724z"/>
<path style="fill:#707487;" d="M375.172,176.552H242.759c-2.438,0-4.414-1.976-4.414-4.414v-8.828c0-2.438,1.976-4.414,4.414-4.414
	h132.414c2.438,0,4.414,1.976,4.414,4.414v8.828C379.586,174.575,377.61,176.552,375.172,176.552z"/>
<path style="fill:#E4EAF6;" d="M114.759,247.172H61.793L70.468,4.256C70.553,1.881,72.503,0,74.88,0h26.792
	c2.377,0,4.327,1.881,4.41,4.256L114.759,247.172z"/>
<g>
	<path style="fill:#FF6464;" d="M74.88,0c-2.377,0-4.327,1.881-4.41,4.256L69.36,35.31h37.832l-1.108-31.054
		C105.998,1.881,104.049,0,101.672,0H74.88z"/>
	<polygon style="fill:#FF6464;" points="66.837,105.931 109.715,105.931 108.454,70.621 68.098,70.621 	"/>
	<polygon style="fill:#FF6464;" points="64.316,176.552 112.236,176.552 110.975,141.241 65.577,141.241 	"/>
	<polygon style="fill:#FF6464;" points="63.054,211.862 61.793,247.172 114.759,247.172 113.497,211.862 	"/>
</g>
<g>
	<polygon style="fill:#C7CFE2;" points="68.729,52.966 107.822,52.966 107.192,35.31 69.359,35.31 	"/>
	<polygon style="fill:#C7CFE2;" points="66.207,123.586 110.345,123.586 109.715,105.931 66.837,105.931 	"/>
	<polygon style="fill:#C7CFE2;" points="63.684,194.207 112.867,194.207 112.236,176.552 64.316,176.552 	"/>
</g>
<path style="fill:#E4EAF6;" d="M203.034,247.172h-52.966l8.675-242.916C158.829,1.881,160.779,0,163.156,0h26.793
	c2.377,0,4.327,1.881,4.41,4.256L203.034,247.172z"/>
<g>
	<path style="fill:#FF6464;" d="M163.156,0c-2.377,0-4.327,1.881-4.41,4.256l-1.11,31.054h37.832l-1.109-31.054
		C194.274,1.881,192.324,0,189.948,0H163.156z"/>
	<polygon style="fill:#FF6464;" points="155.113,105.931 197.991,105.931 196.729,70.621 156.374,70.621 	"/>
	<polygon style="fill:#FF6464;" points="152.591,176.552 200.512,176.552 199.251,141.241 153.853,141.241 	"/>
	<polygon style="fill:#FF6464;" points="151.33,211.862 150.069,247.172 203.034,247.172 201.773,211.862 	"/>
</g>
<g>
	<polygon style="fill:#C7CFE2;" points="157.005,52.966 196.098,52.966 195.468,35.31 157.635,35.31 	"/>
	<polygon style="fill:#C7CFE2;" points="154.483,123.586 198.621,123.586 197.991,105.931 155.113,105.931 	"/>
	<polygon style="fill:#C7CFE2;" points="151.96,194.207 201.143,194.207 200.512,176.552 152.591,176.552 	"/>
</g>
<path style="fill:#8F96AC;" d="M507.586,512H4.414C1.976,512,0,510.024,0,507.586v-8.828c0-2.438,1.976-4.414,4.414-4.414h503.172
	c2.438,0,4.414,1.976,4.414,4.414v8.828C512,510.024,510.024,512,507.586,512z"/>
<path style="fill:#B4E1FA;" d="M264.828,242.759v-35.31c0-2.438,1.976-4.414,4.414-4.414h8.828c2.438,0,4.414,1.976,4.414,4.414
	v35.31c0,2.438-1.976,4.414-4.414,4.414h-8.828C266.804,247.172,264.828,245.196,264.828,242.759z"/>
<path style="fill:#A0D2F0;" d="M278.069,203.034h-8.828c-2.438,0-4.414,1.976-4.414,4.414v13.241h17.655v-13.241
	C282.483,205.011,280.506,203.034,278.069,203.034z"/>
<path style="fill:#B4E1FA;" d="M300.138,242.759v-35.31c0-2.438,1.976-4.414,4.414-4.414h8.828c2.438,0,4.414,1.976,4.414,4.414
	v35.31c0,2.438-1.976,4.414-4.414,4.414h-8.828C302.114,247.172,300.138,245.196,300.138,242.759z"/>
<path style="fill:#A0D2F0;" d="M313.379,203.034h-8.828c-2.438,0-4.414,1.976-4.414,4.414v13.241h17.655v-13.241
	C317.793,205.011,315.817,203.034,313.379,203.034z"/>
<path style="fill:#B4E1FA;" d="M335.448,242.759v-35.31c0-2.438,1.976-4.414,4.414-4.414h8.828c2.438,0,4.414,1.976,4.414,4.414
	v35.31c0,2.438-1.976,4.414-4.414,4.414h-8.828C337.425,247.172,335.448,245.196,335.448,242.759z"/>
<path style="fill:#A0D2F0;" d="M348.69,203.034h-8.828c-2.438,0-4.414,1.976-4.414,4.414v13.241h17.655v-13.241
	C353.103,205.011,351.127,203.034,348.69,203.034z"/>
<path style="fill:#B4E1FA;" d="M264.828,313.379v-35.31c0-2.438,1.976-4.414,4.414-4.414h8.828c2.438,0,4.414,1.976,4.414,4.414
	v35.31c0,2.438-1.976,4.414-4.414,4.414h-8.828C266.804,317.793,264.828,315.817,264.828,313.379z"/>
<path style="fill:#A0D2F0;" d="M278.069,273.655h-8.828c-2.438,0-4.414,1.976-4.414,4.414v13.241h17.655v-13.241
	C282.483,275.631,280.506,273.655,278.069,273.655z"/>
<path style="fill:#B4E1FA;" d="M300.138,313.379v-35.31c0-2.438,1.976-4.414,4.414-4.414h8.828c2.438,0,4.414,1.976,4.414,4.414
	v35.31c0,2.438-1.976,4.414-4.414,4.414h-8.828C302.114,317.793,300.138,315.817,300.138,313.379z"/>
<path style="fill:#A0D2F0;" d="M313.379,273.655h-8.828c-2.438,0-4.414,1.976-4.414,4.414v13.241h17.655v-13.241
	C317.793,275.631,315.817,273.655,313.379,273.655z"/>
<path style="fill:#B4E1FA;" d="M335.448,313.379v-35.31c0-2.438,1.976-4.414,4.414-4.414h8.828c2.438,0,4.414,1.976,4.414,4.414
	v35.31c0,2.438-1.976,4.414-4.414,4.414h-8.828C337.425,317.793,335.448,315.817,335.448,313.379z"/>
<path style="fill:#A0D2F0;" d="M348.69,273.655h-8.828c-2.438,0-4.414,1.976-4.414,4.414v13.241h17.655v-13.241
	C353.103,275.631,351.127,273.655,348.69,273.655z"/>
<path style="fill:#B4E1FA;" d="M264.828,384v-35.31c0-2.438,1.976-4.414,4.414-4.414h8.828c2.438,0,4.414,1.976,4.414,4.414V384
	c0,2.438-1.976,4.414-4.414,4.414h-8.828C266.804,388.414,264.828,386.438,264.828,384z"/>
<path style="fill:#A0D2F0;" d="M278.069,344.276h-8.828c-2.438,0-4.414,1.976-4.414,4.414v13.241h17.655V348.69
	C282.483,346.252,280.506,344.276,278.069,344.276z"/>
<path style="fill:#B4E1FA;" d="M300.138,384v-35.31c0-2.438,1.976-4.414,4.414-4.414h8.828c2.438,0,4.414,1.976,4.414,4.414V384
	c0,2.438-1.976,4.414-4.414,4.414h-8.828C302.114,388.414,300.138,386.438,300.138,384z"/>
<path style="fill:#A0D2F0;" d="M313.379,344.276h-8.828c-2.438,0-4.414,1.976-4.414,4.414v13.241h17.655V348.69
	C317.793,346.252,315.817,344.276,313.379,344.276z"/>
<path style="fill:#B4E1FA;" d="M335.448,384v-35.31c0-2.438,1.976-4.414,4.414-4.414h8.828c2.438,0,4.414,1.976,4.414,4.414V384
	c0,2.438-1.976,4.414-4.414,4.414h-8.828C337.425,388.414,335.448,386.438,335.448,384z"/>
<path style="fill:#A0D2F0;" d="M348.69,344.276h-8.828c-2.438,0-4.414,1.976-4.414,4.414v13.241h17.655V348.69
	C353.103,346.252,351.127,344.276,348.69,344.276z"/>
<path style="fill:#B4E1FA;" d="M264.828,454.621v-35.31c0-2.438,1.976-4.414,4.414-4.414h8.828c2.438,0,4.414,1.976,4.414,4.414
	v35.31c0,2.438-1.976,4.414-4.414,4.414h-8.828C266.804,459.034,264.828,457.058,264.828,454.621z"/>
<path style="fill:#A0D2F0;" d="M278.069,414.897h-8.828c-2.438,0-4.414,1.976-4.414,4.414v13.241h17.655V419.31
	C282.483,416.873,280.506,414.897,278.069,414.897z"/>
<path style="fill:#B4E1FA;" d="M300.138,454.621v-35.31c0-2.438,1.976-4.414,4.414-4.414h8.828c2.438,0,4.414,1.976,4.414,4.414
	v35.31c0,2.438-1.976,4.414-4.414,4.414h-8.828C302.114,459.034,300.138,457.058,300.138,454.621z"/>
<path style="fill:#A0D2F0;" d="M313.379,414.897h-8.828c-2.438,0-4.414,1.976-4.414,4.414v13.241h17.655V419.31
	C317.793,416.873,315.817,414.897,313.379,414.897z"/>
<path style="fill:#B4E1FA;" d="M335.448,454.621v-35.31c0-2.438,1.976-4.414,4.414-4.414h8.828c2.438,0,4.414,1.976,4.414,4.414
	v35.31c0,2.438-1.976,4.414-4.414,4.414h-8.828C337.425,459.034,335.448,457.058,335.448,454.621z"/>
<path style="fill:#A0D2F0;" d="M348.69,414.897h-8.828c-2.438,0-4.414,1.976-4.414,4.414v13.241h17.655V419.31
	C353.103,416.873,351.127,414.897,348.69,414.897z"/>
<g>
</g>
<g>
</g>
<g>
</g>
<g>
</g>
<g>
</g>
<g>
</g>
<g>
</g>
<g>
</g>
<g>
</g>
<g>
</g>
<g>
</g>
<g>
</g>
<g>
</g>
<g>
</g>
<g>
</g>
</svg>
