<svg height="512pt" viewBox="0 0 512.002 512" width="512pt" xmlns="http://www.w3.org/2000/svg"><g fill-rule="evenodd"><path d="m99.046875 50.929688-48.121094 48.117187c-9.984375 9.957031-9.984375 26.238281 0 36.191406l19.597657 19.601563c-6.953126 13.101562-12.589844 27.003906-16.707032 41.539062h-28.210937c-14.105469 0-25.605469 11.5-25.605469 25.578125v68.0625c0 14.101563 11.5 25.601563 25.605469 25.601563h29.265625c4.265625 14.105468 9.957031 27.582031 16.910156 40.257812l-20.855469 20.882813c-9.984375 9.957031-9.984375 26.234375 0 36.191406l48.121094 48.121094c9.957031 9.957031 26.234375 9.957031 36.191406 0l20.886719-20.855469c12.671875 6.953125 26.148438 12.617188 40.253906 16.878906v29.296875c0 14.078125 11.5 25.605469 25.578125 25.605469h68.0625c14.101563 0 25.605469-11.527344 25.605469-25.605469v-28.210937c14.53125-4.117188 28.4375-9.753906 41.511719-16.707032l19.625 19.597657c9.957031 9.957031 26.234375 9.957031 36.191406 0l48.121094-48.121094c9.957031-9.957031 9.957031-26.234375 0-36.191406l-18.539063-18.566407c7.554688-13.359374 13.675782-27.605468 18.199219-42.570312h25.660156c14.078125 0 25.609375-11.5 25.609375-25.605469v-68.0625c0-14.074219-11.53125-25.574219-25.609375-25.574219h-24.601562c-4.347657-15.421874-10.414063-30.128906-17.96875-43.890624l17.25-17.25c9.957031-9.957032 9.957031-26.234376 0-36.191407l-48.121094-48.148437c-9.957031-9.957032-26.234375-9.957032-36.191406 0l-17.25 17.246094c-13.792969-7.523438-28.46875-13.589844-43.890625-17.964844v-24.578125c0-14.101563-11.5-25.605469-25.605469-25.605469h-68.058594c-14.078125 0-25.578125 11.503906-25.578125 25.605469v25.664062c-14.964844 4.519531-29.238281 10.644531-42.601562 18.195313l-18.539063-18.566406c-9.957031-9.957032-26.234375-9.957032-36.191406.03125zm53.441406 91.71875c-62.597656 57.164062-67.003906 154.265624-9.839843 216.863281 4.890624 5.347656 10.097656 10.300781 15.535156 14.820312 53.328125 44.199219 130.375 47.089844 186.90625 6.695313 4.980468-3.582032 9.785156-7.441406 14.421875-11.675782 62.597656-57.164062 67.003906-154.261718 9.839843-216.859374-7.464843-8.152344-15.589843-15.335938-24.257812-21.515626-55.675781-39.765624-132.664062-38.195312-186.910156 6.695313-1.917969 1.601563-3.832032 3.261719-5.695313 4.976563zm0 0" fill="#808080"/><path d="m131.605469 369.554688c-62.714844-68.664063-57.878907-175.207032 10.8125-237.949219 1.261719-1.144531 2.546875-2.289063 3.835937-3.375 11.785156-28.066407 28.007813-53.785157 47.835938-76.273438-14.132813 4.464844-27.609375 10.355469-40.3125 17.511719l-18.539063-18.570312c-9.957031-9.953126-26.234375-9.953126-36.191406.03125l-48.121094 48.121093c-9.984375 9.957031-9.984375 26.234375 0 36.191407l19.597657 19.597656c-6.953126 13.101562-12.589844 27.003906-16.707032 41.542968h-28.210937c-14.105469-.003906-25.605469 11.496094-25.605469 25.574219v68.0625c0 14.101563 11.5 25.601563 25.605469 25.601563h29.265625c4.265625 14.105468 9.957031 27.582031 16.910156 40.257812l-20.855469 20.882813c-9.984375 9.957031-9.984375 26.234375 0 36.191406l48.121094 48.121094c9.957031 9.957031 26.234375 9.957031 36.191406 0l20.886719-20.855469c12.671875 6.953125 26.148438 12.617188 40.253906 16.878906v29.296875c0 14.078125 11.5 25.605469 25.578125 25.605469h68.0625c9.726563 0 18.222657-5.492188 22.570313-13.53125-50.496094-17.253906-94.410156-48.636719-127.054688-89.4375-19.855468-9.152344-38.253906-22.3125-53.929687-39.476562zm0 0" fill="#525252"/><path d="m142.417969 131.605469c-68.691407 62.742187-73.527344 169.285156-10.8125 237.945312 62.738281 68.722657 169.253906 73.554688 237.972656 10.84375 68.695313-62.742187 73.53125-169.285156 10.816406-237.976562-62.742187-68.6875-169.28125-73.523438-237.976562-10.8125zm180.757812 152.976562c0 31.097657-19.371093 52.699219-49.152343 59.679688v39.96875c25.003906-3.492188 49.238281-14.304688 69.292968-32.617188 52.816406-48.207031 56.535156-130.113281 8.296875-182.929687-21.140625-23.171875-48.777343-36.875-77.589843-40.910156v28.464843c10.273437 2.203125 21.429687 6.695313 29.355468 13.734375 24.71875 18.539063.886719 51.324219-20.457031 33.386719-14.449219-12.128906-47.207031-14.847656-47.207031 7.46875 0 11.242187 13.503906 15.707031 22.660156 17.078125 20.425781 3.0625 47.207031 9.242188 58.246094 28.410156 4.378906 7.550782 6.554687 16.964844 6.554687 28.265625zm-87.117187 99.363281v-39.511718c-8.496094-1.917969-16.164063-5.066406-23-9.414063-9.15625-5.835937-12.5625-9.039062-18.855469-17.25-17.339844-22.691406 11.273437-46.949219 27.949219-29.46875 11.332031 11.902344 13.964844 16.394531 32.074218 16.394531 15.734376 0 23.628907-6.496093 23.628907-19.484374 0-4.691407-3.003907-8.296876-8.953125-10.84375-24.375-10.472657-51.554688-8.351563-68.949219-32.585938-22.800781-31.726562-2.347656-78.246094 36.449219-85.800781v-28.007813c-24.433594 3.71875-48.09375 14.472656-67.71875 32.386719-52.816406 48.234375-56.535156 130.144531-8.328125 182.957031 20.6875 22.628906 47.578125 36.25 75.703125 40.628906zm0 0" fill="#ffcc73"/><path d="m160.359375 343.316406c-39.082031-42.828125-44.03125-104.769531-16.367187-152.375 8.957031-25.175781 24.003906-48.550781 45.117187-67.804687 17.96875-16.421875 38.566406-28.207031 60.28125-35.445313-38.363281 1.484375-76.414063 16.019532-106.96875 43.914063-68.695313 62.742187-73.527344 169.285156-10.816406 237.945312 46.320312 50.726563 116.46875 66.632813 177.695312 46.261719-47.863281 1.859375-96.1875-16.589844-131.003906-54.726562-1.429687-1.574219-2.832031-3.148438-4.175781-4.75-4.835938-3.949219-9.414063-8.296876-13.761719-13.019532zm0 0" fill="#f59556"/></g></svg>