<svg height="512" viewBox="0 0 64 64" width="512" xmlns="http://www.w3.org/2000/svg"><g id="Online_store" data-name="Online store"><rect fill="#1a6fb0" height="44" rx="4" width="58" x="3" y="3"/><path d="m7 13h50v26h-50z" fill="#ffdaaa"/><path d="m33.937 16 1.125 6h4.938v-6h-6.06z" fill="#5eac24"/><path d="m35.06 22h-5.31l1.25 5h5l-.938-5z" fill="#4e901e"/><path d="m35.062 22-1.125-6h-5.687l1.5 6h5.31z" fill="#5eac24"/><path d="m44.94 22h5.31l-1.25 5h-5l.938-5z" fill="#4e901e"/><path d="m44.938 22 1.125-6h5.687l-1.5 6h-5.31z" fill="#5eac24"/><path d="m40 22v5h4l.937-5z" fill="#4e901e"/><path d="m35.062 22 .938 5h4v-5z" fill="#4e901e"/><path d="m40 16v6h4.937l1.125-6h-.002z" fill="#5eac24"/><circle cx="32" cy="43" fill="#ffcd00" r="2"/><path d="m25 47h14v8h-14z" fill="#a7a9ac"/><path d="m17 55a4 4 0 0 0 -4 4v2h38v-2a4 4 0 0 0 -4-4z" fill="#6d6e71"/><circle cx="35" cy="30" fill="#d80027" r="2"/><circle cx="45" cy="30" fill="#d80027" r="2"/><path d="m13 19h12v8h-12z" fill="#d80027"/><path d="m7 7h50v6h-50z" fill="#2488ff"/><g fill="#7ed63e"><path d="m33.94 16h6.06v-5h-7l.937 5z"/><path d="m33 11h-6l1.25 5h5.687z"/><path d="m47 11h6l-1.25 5h-5.687z"/><path d="m40 11v5h6.06.002l.938-5z"/></g><path d="m18 39h39v-26c0 14.371-17.443 26-39 26z" fill="#ffc477"/><path d="m27 10a1 1 0 0 0 -.97 1.243l4 16a1 1 0 0 0 .97.757h1.78a3 3 0 1 0 4.44 0h5.56a3 3 0 1 0 4.44 0h1.78c.022 0 .041-.011.063-.013a.958.958 0 0 0 .106.013 1 1 0 0 0 .971-.762l5.695-23.238h5.165a1 1 0 0 0 0-2h-5.949a1 1 0 0 0 -.972.762l-1.774 7.238zm24.079 5h-3.812l.562-3h3.986zm-1.47 6h-3.467l.75-4h3.7zm-1.226 5h-3.183l.563-3h3.351zm-18.852-9h3.577l.75 4h-3.327zm5.611 0h3.858v4h-3.108zm3.858-2h-4.233l-.567-3h4.8zm2-3h4.8l-.563 3h-4.237zm0 5h3.858l-.75 4h-3.108zm-8.829-5 .562 3h-3.7l-.75-3zm-1.14 11h3.2l.563 3h-3.013zm3.969 8a1 1 0 1 1 1-1 1 1 0 0 1 -1 1zm1.829-5-.562-3h2.733v3zm4.171-3h2.733l-.562 3h-2.171zm4 8a1 1 0 1 1 1-1 1 1 0 0 1 -1 1z" fill="#417819"/><path d="m10 9a1 1 0 0 0 0 2h1a1 1 0 0 0 0-2z" fill="#d80027"/><path d="m14 9a1 1 0 0 0 0 2h1a1 1 0 0 0 0-2z" fill="#ff9811"/><path d="m18 9a1 1 0 0 0 0 2h1a1 1 0 0 0 0-2z" fill="#5eac24"/><path d="m13 32h16a1 1 0 0 0 0-2h-16a1 1 0 0 0 0 2z" fill="#f1f2f2"/><path d="m13 36h20a1 1 0 0 0 0-2h-20a1 1 0 0 0 0 2z" fill="#f1f2f2"/><path d="m39 34a1 1 0 0 0 0 2h14a1 1 0 0 0 0-2z" fill="#f1f2f2"/><path d="m25 47h14v2h-14z" fill="#808285"/></g></svg>