<svg height="454pt" viewBox="-1 0 454 454.31" width="454pt" xmlns="http://www.w3.org/2000/svg"><path d="m26.617188 91.210938h398.839843v360.097656h-398.839843zm0 0" fill="#fce8cb"/><path d="m425.457031 88.210938h-398.839843c-1.660157 0-3 1.339843-3 3v175.296874c0 1.65625 1.339843 3 3 3 1.65625 0 3-1.34375 3-3v-172.296874h392.839843v354.097656h-392.839843v-152.515625c0-1.65625-1.34375-3-3-3-1.660157 0-3 1.34375-3 3v155.515625c0 1.660156 1.339843 3 3 3h398.839843c1.65625 0 3-1.339844 3-3v-360.097656c0-1.660157-1.34375-3-3-3zm0 0" fill="#3a312a"/><path d="m349.515625 234.113281h-246.441406c-8.851563 0-16.027344 7.179688-16.027344 16.03125v132.945313c0 8.851562 7.175781 16.027344 16.027344 16.027344h246.441406c8.855469 0 16.03125-7.175782 16.03125-16.027344v-132.945313c0-8.855469-7.175781-16.03125-16.03125-16.03125zm0 0" fill="#8ac6dd"/><path d="m349.515625 231.113281h-246.441406c-10.492188 0-19.027344 8.535157-19.027344 19.027344v132.945313c0 10.492187 8.535156 19.03125 19.027344 19.03125h246.441406c10.492187 0 19.03125-8.539063 19.03125-19.03125v-132.945313c0-10.492187-8.539063-19.027344-19.03125-19.027344zm13.03125 151.972657c0 7.1875-5.847656 13.03125-13.03125 13.03125h-246.441406c-7.183594 0-13.027344-5.84375-13.027344-13.03125v-132.945313c0-7.183594 5.84375-13.027344 13.027344-13.027344h246.441406c7.183594 0 13.03125 5.84375 13.03125 13.027344zm0 0" fill="#3a312a"/><path d="m378.535156 3h-304.996094l-70.382812 88.214844h445.757812zm0 0" fill="#f16c7a"/><path d="m451.261719 89.34375-70.382813-88.214844c-.570312-.714844-1.433594-1.128906-2.34375-1.128906h-59.941406c-1.65625 0-3 1.34375-3 3s1.34375 3 3 3h58.496094l65.59375 82.214844h-433.296875l65.59375-82.214844h217.160156c1.65625 0 3-1.34375 3-3s-1.34375-3-3-3h-218.601563c-.914062 0-1.777343.414062-2.34375 1.128906l-70.386718 88.214844c-.7187502.898438-.855469 2.132812-.355469 3.171875.5 1.035156 1.546875 1.695313 2.703125 1.695313h445.757812c1.152344 0 2.207032-.660157 2.707032-1.695313.5-1.039063.359375-2.273437-.359375-3.171875zm0 0" fill="#3a312a"/><path d="m92.285156 91.214844v48.558594c.007813-.289063.023438-.574219.023438-.863282 0 24.617188 19.957031 44.574219 44.574218 44.574219 23.96875 0 43.511719-18.921875 44.527344-42.640625v-49.628906zm0 0" fill="#d7e057"/><path d="m181.410156 88.214844h-89.125c-1.65625 0-3 1.339844-3 3v48.558594c0 .167968.015625.332031.039063.496093.726562 25.605469 21.78125 46.214844 47.558593 46.214844 25.558594 0 46.429688-19.992187 47.527344-45.640625v-49.628906c0-1.660156-1.34375-3-3-3zm-44.527344 92.269531c-22.921874 0-41.574218-18.648437-41.574218-41.574219 0-.121094-.007813-.242187-.023438-.363281v-44.332031h83.125l.003906 46.5c-.953124 22.300781-19.195312 39.769531-41.53125 39.769531zm0 0" fill="#3a312a"/><path d="m3.15625 91.214844v47.691406c0 24.621094 19.957031 44.578125 44.574219 44.578125 24.328125 0 44.09375-19.496094 44.554687-43.710937v-48.558594zm0 0" fill="#f16c7a"/><path d="m92.285156 88.214844h-89.128906c-1.660156 0-3 1.339844-3 3v47.691406c0 26.234375 21.339844 47.578125 47.574219 47.578125 25.730469 0 47.0625-20.929687 47.554687-46.710937v-48.558594c0-1.660156-1.339844-3-3-3zm-44.554687 92.269531c-22.921875 0-41.574219-18.652344-41.574219-41.578125v-44.691406h83.128906v45.5c-.425781 22.480468-19.070312 40.769531-41.554687 40.769531zm0 0" fill="#3a312a"/><path d="m359.660156 91.214844v50.582031c.0625-.957031.105469-1.917969.105469-2.890625 0 24.621094 19.957031 44.574219 44.574219 44.574219 24.617187 0 44.574218-19.957031 44.574218-44.574219v-47.691406zm0 0" fill="#f16c7a"/><path d="m448.914062 88.214844h-89.253906c-1.65625 0-3 1.339844-3 3v50.582031c0 .457031.101563.890625.285156 1.277344 2.117188 24.292969 22.566407 43.410156 47.394532 43.410156 26.234375 0 47.574218-21.339844 47.574218-47.574219v-47.695312c0-1.660156-1.339843-3-3-3zm-3 50.691406c0 22.921875-18.648437 41.574219-41.574218 41.574219-22.925782 0-41.574219-18.648438-41.574219-41.574219 0-.269531-.039063-.53125-.105469-.78125v-43.910156h83.253906zm0 0" fill="#3a312a"/><path d="m270.535156 91.214844v50.222656c.046875-.835938.078125-1.679688.078125-2.53125 0 24.617188 19.957031 44.574219 44.574219 44.574219 23.644531 0 42.980469-18.414063 44.472656-41.683594v-50.582031zm0 0" fill="#d7e057"/><path d="m359.660156 88.214844h-89.125c-1.65625 0-3 1.339844-3 3v50.222656c0 .394531.078125.769531.214844 1.117188 1.867188 24.539062 22.429688 43.925781 47.4375 43.925781 25.019531 0 45.867188-19.542969 47.472656-44.683594v-50.582031c0-1.660156-1.34375-3-3-3zm-44.472656 92.269531c-22.925781 0-41.574219-18.652344-41.574219-41.578125 0-.230469-.027343-.457031-.078125-.671875v-44.019531h83.125l.003906 47.390625c-1.394531 21.800781-19.613281 38.878906-41.476562 38.878906zm0 0" fill="#3a312a"/><path d="m181.410156 91.214844v49.628906c.027344-.640625.050782-1.289062.050782-1.9375 0 24.621094 19.957031 44.578125 44.574218 44.578125 23.769532 0 43.1875-18.605469 44.5-42.042969v-50.226562zm0 0" fill="#f16c7a"/><path d="m270.535156 88.214844h-89.125c-1.660156 0-3 1.339844-3 3v49.628906c0 .304688.046875.601562.128906.878906 1.460938 24.929688 22.207032 44.761719 47.496094 44.761719 25.222656 0 46.085938-19.710937 47.5-45.046875v-50.222656c0-1.660156-1.34375-3-3-3zm-44.5 92.269531c-22.921875 0-41.574218-18.652344-41.574218-41.578125 0-.183594-.015626-.363281-.050782-.539062v-44.152344h83.128906l.003907 47.054687c-1.234375 21.988281-19.464844 39.214844-41.507813 39.214844zm0 0" fill="#3a312a"/><path d="m377.097656 6h-30l65.578125 82.21875h30zm0 0" fill="#d34e5c"/><path d="m415.914062 94.21875v44.679688c0 17.660156-11.039062 32.761718-26.578124 38.78125 4.640624 1.800781 9.71875 2.800781 15 2.800781 22.941406 0 41.578124-18.640625 41.578124-41.582031v-44.679688zm0 0" fill="#d34e5c"/><path d="m297.296875 73.617188c0 38.660156-31.339844 70-70 70s-70-31.339844-70-70c0-38.660157 31.339844-70 70-70s70 31.339843 70 70zm0 0" fill="#fce8cb"/><path d="m227.296875.613281c-40.253906 0-73 32.75-73 73 0 40.253907 32.746094 73 73 73 40.25 0 72.996094-32.746093 72.996094-73 0-40.25-32.746094-73-72.996094-73zm0 140c-36.945313 0-67-30.054687-67-67 0-36.941406 30.054687-67 67-67 36.941406 0 66.996094 30.058594 66.996094 67 .003906 36.945313-30.054688 67-66.996094 67zm0 0" fill="#3a312a"/><path d="m227.464844 71.636719c-13.570313 0-24.570313 13.355469-24.570313 24.625 0 11.265625 11 13.226562 24.570313 13.226562 13.570312 0 24.574218-1.964843 24.574218-13.226562 0-11.269531-11.003906-24.625-24.574218-24.625zm0 0" fill="#87796f"/><path d="m227.464844 68.636719c-15.527344 0-27.570313 14.847656-27.570313 27.621093 0 16.230469 19.320313 16.230469 27.570313 16.230469s27.574218 0 27.574218-16.230469c0-12.773437-12.046874-27.621093-27.574218-27.621093zm0 37.851562c-17.902344 0-21.570313-4.089843-21.570313-10.230469 0-9.734374 9.953125-21.621093 21.570313-21.621093 11.617187 0 21.574218 11.890625 21.574218 21.621093 0 6.140626-3.667968 10.230469-21.574218 10.230469zm0 0" fill="#3a312a"/><path d="m227.464844 38.351562c-5.3125 0-9.625 5.527344-9.625 12.347657 0 6.820312 4.308594 12.351562 9.625 12.351562s9.625-5.53125 9.625-12.351562c0-6.820313-4.308594-12.347657-9.625-12.347657zm0 0" fill="#87796f"/><path d="m227.464844 35.351562c-6.960938 0-12.625 6.882813-12.625 15.347657 0 8.464843 5.664062 15.351562 12.625 15.351562 6.960937 0 12.625-6.886719 12.625-15.351562-.003906-8.464844-5.664063-15.347657-12.625-15.347657zm0 24.699219c-3.589844 0-6.625-4.28125-6.625-9.351562 0-5.066407 3.035156-9.347657 6.625-9.347657s6.625 4.28125 6.625 9.347657c-.003906 5.070312-3.035156 9.351562-6.625 9.351562zm0 0" fill="#3a312a"/><path d="m208.582031 55.984375c-3.183593-6.027344-9.578125-8.90625-14.277343-6.421875-4.699219 2.480469-5.925782 9.382812-2.738282 15.414062 3.183594 6.03125 9.578125 8.90625 14.277344 6.425782 4.699219-2.480469 5.929688-9.382813 2.738281-15.417969zm0 0" fill="#87796f"/><path d="m211.238281 54.585938c-3.953125-7.484376-12.175781-10.925782-18.332031-7.675782-3.109375 1.644532-5.195312 4.664063-5.878906 8.503906-.632813 3.566407.039062 7.460938 1.886718 10.964844 2.945313 5.570313 8.25 8.902344 13.308594 8.902344 1.742188 0 3.449219-.394531 5.023438-1.226562 3.109375-1.640626 5.199218-4.660157 5.878906-8.503907.636719-3.566406-.039062-7.460937-1.886719-10.964843zm-4.019531 9.914062c-.351562 1.980469-1.339844 3.488281-2.773438 4.25-3.175781 1.671875-7.859374-.695312-10.226562-5.175781-1.230469-2.328125-1.6875-4.851563-1.285156-7.109375.351562-1.980469 1.335937-3.492188 2.773437-4.25.695313-.363282 1.460938-.539063 2.257813-.539063 2.851562 0 6.117187 2.210938 7.96875 5.710938 1.226562 2.332031 1.6875 4.855469 1.285156 7.113281zm0 0" fill="#3a312a"/><path d="m188.78125 74.339844c-5.429688-4.125-12.441406-4.042969-15.65625.191406-3.21875 4.230469-1.421875 11.007812 4.007812 15.132812 5.429688 4.125 12.441407 4.042969 15.65625-.191406 3.214844-4.230468 1.421876-11.003906-4.007812-15.132812zm0 0" fill="#87796f"/><path d="m196.929688 81.101562c-.929688-3.5-3.179688-6.75-6.332032-9.148437 0 0 0 0-.003906 0-6.738281-5.125-15.648438-4.78125-19.859375.761719-4.210937 5.542968-2.15625 14.21875 4.582031 19.335937 3.199219 2.429688 6.878906 3.628907 10.316406 3.628907 3.816407 0 7.328126-1.476563 9.542969-4.390626 2.128907-2.796874 2.75-6.417968 1.753907-10.1875zm-6.527344 6.558594c-2.171875 2.859375-7.417969 2.683594-11.453125-.382812-4.035157-3.066406-5.609375-8.074219-3.433594-10.929688 1.035156-1.363281 2.765625-2.039062 4.730469-2.039062 2.164062 0 4.609375.8125 6.71875 2.417968 2.097656 1.59375 3.578125 3.695313 4.164062 5.910157.511719 1.945312.253906 3.730469-.726562 5.023437zm0 0" fill="#3a312a"/><path d="m260.777344 49.5625c-4.703125-2.484375-11.09375.394531-14.28125 6.421875-3.183594 6.03125-1.957032 12.933594 2.742187 15.417969 4.699219 2.480468 11.089844-.394532 14.277344-6.425782 3.1875-6.027343 1.957031-12.929687-2.738281-15.414062zm0 0" fill="#87796f"/><path d="m268.058594 55.414062c-.683594-3.84375-2.773438-6.863281-5.878906-8.503906-6.15625-3.253906-14.378907.191406-18.332032 7.675782-3.957031 7.480468-2.164062 16.214843 3.988282 19.464843 1.574218.832031 3.292968 1.25 5.070312 1.25 1.730469 0 3.511719-.394531 5.269531-1.183593 3.300781-1.488282 6.140625-4.234376 7.992188-7.738282 1.851562-3.503906 2.523437-7.398437 1.890625-10.964844zm-7.195313 8.160157c-1.230469 2.328125-3.058593 4.132812-5.152343 5.070312-1.832032.828125-3.632813.863281-5.074219.105469-3.171875-1.675781-3.855469-6.878906-1.488281-11.363281 2.371093-4.480469 7.046874-6.84375 10.226562-5.171875 1.4375.761718 2.421875 2.269531 2.773438 4.25.402343 2.257812-.058594 4.78125-1.285157 7.109375zm0 0" fill="#3a312a"/><path d="m281.46875 74.53125c-3.21875-4.234375-10.226562-4.316406-15.65625-.191406s-7.226562 10.902344-4.011719 15.132812c3.21875 4.234375 10.226563 4.316406 15.65625.191406 5.433594-4.125 7.226563-10.902343 4.011719-15.132812zm0 0" fill="#87796f"/><path d="m283.859375 72.714844c-4.214844-5.539063-13.121094-5.882813-19.863281-.761719-3.15625 2.398437-5.402344 5.648437-6.332032 9.148437-1 3.769532-.375 7.390626 1.75 10.1875 2.125 2.800782 5.449219 4.367188 9.351563 4.414063h.175781c3.5625 0 7.226563-1.292969 10.332032-3.652344 3.15625-2.398437 5.40625-5.644531 6.332031-9.148437 1-3.769532.378906-7.386719-1.746094-10.1875zm-4.054687 8.652344c-.585938 2.21875-2.0625 4.316406-4.160157 5.910156-2.097656 1.59375-4.492187 2.464844-6.808593 2.425781-2.011719-.023437-3.660157-.75-4.640626-2.042969-.984374-1.292968-1.242187-3.078125-.726562-5.023437.585938-2.214844 2.066406-4.3125 4.160156-5.90625 4.039063-3.066407 9.28125-3.238281 11.453125-.382813.980469 1.292969 1.238281 3.078125.722657 5.019532zm0 0" fill="#3a312a"/><path d="m189.117188 322.851562h-.019532l-18.34375 8.5c3.121094 3.617188 5.0625 7.9375 5.761719 12.398438l18.339844-8.5zm0 0" fill="#87796f"/><path d="m197.578125 333.988281-5.742187-12.398437c-.671876-1.457032-2.546876-2.140625-4.003907-1.460938l-18.339843 8.5c-.855469.394532-1.472657 1.167969-1.671876 2.085938-.195312.921875.046876 1.882812.660157 2.59375 2.6875 3.117187 4.4375 6.886718 5.070312 10.90625.148438.929687.722657 1.738281 1.550781 2.179687.441407.238281.925782.355469 1.414063.355469.429687 0 .859375-.09375 1.261719-.277344l18.339844-8.5c1.503906-.695312 2.15625-2.480468 1.460937-3.984375zm-18.972656 5.488281c-.753907-2.453124-1.839844-4.792968-3.238281-6.957031l12.285156-5.695312 3.222656 6.964843zm0 0" fill="#3a312a"/><path d="m169.292969 329.796875c-9.855469-9.640625-25.664063-9.460937-35.304688.394531-9.640625 9.859375-9.464843 25.667969.394531 35.304688 9.855469 9.640625 25.664063 9.464844 35.304688-.390625 9.640625-9.859375 9.464844-25.667969-.394531-35.308594zm-7.84375 27.25c-5.191407 5.3125-13.703125 5.40625-19.011719.214844-5.3125-5.195313-5.40625-13.707031-.214844-19.015625s13.707032-5.402344 19.015625-.210938c5.308594 5.191406 5.402344 13.703125.210938 19.011719zm0 0" fill="#f16c7a" fill-rule="evenodd"/><path d="m163.335938 335.890625c-3.140626-3.070313-7.285157-4.675781-11.683594-4.6875-4.390625.050781-8.5 1.808594-11.574219 4.945313-3.070313 3.144531-4.734375 7.292968-4.6875 11.683593.050781 4.390625 1.808594 8.503907 4.945313 11.574219 3.097656 3.027344 7.171874 4.6875 11.492187 4.6875h.191406c4.390625-.050781 8.5-1.808594 11.570313-4.949219 6.34375-6.484375 6.226562-16.914062-.253906-23.253906zm-4.03125 19.058594c-1.949219 1.996093-4.5625 3.113281-7.351563 3.144531-2.796875.042969-5.421875-1.027344-7.417969-2.980469-1.996094-1.949219-3.113281-4.558593-3.144531-7.347656-.027344-2.792969 1.027344-5.425781 2.976563-7.421875 2.042968-2.085938 4.757812-3.136719 7.46875-3.136719 2.636718 0 5.277343.988281 7.304687 2.972657 4.117187 4.027343 4.191406 10.65625.164063 14.769531zm12.085937-27.296875c-5.339844-5.222656-12.378906-8.070313-19.863281-7.96875-7.472656.085937-14.460938 3.070312-19.683594 8.414062-5.222656 5.339844-8.054688 12.394532-7.96875 19.863282.082031 7.472656 3.070312 14.460937 8.410156 19.683593 5.265625 5.148438 12.195313 7.972657 19.542969 7.972657.109375 0 .214844-.003907.320313-.003907 7.472656-.082031 14.460937-3.070312 19.683593-8.410156 5.222657-5.339844 8.054688-12.398437 7.96875-19.867187-.082031-7.46875-3.070312-14.460938-8.410156-19.683594zm-3.847656 35.355468c-4.101563 4.195313-9.59375 6.539063-15.460938 6.605469-5.816406.085938-11.410156-2.15625-15.605469-6.257812-4.195312-4.101563-6.539062-9.59375-6.605468-15.460938-.066406-5.867187 2.15625-11.410156 6.257812-15.605469 4.101563-4.195312 9.59375-6.542968 15.460938-6.605468.082031-.003906.167968-.003906.25-.003906 5.777344 0 11.21875 2.21875 15.355468 6.261718 4.195313 4.101563 6.539063 9.59375 6.605469 15.460938.066407 5.867187-2.15625 11.410156-6.257812 15.605468zm0 0" fill="#3a312a"/><path d="m305.253906 273.839844-119.078125 42.695312 11.601563 25.039063 127.824218-59.21875c-3.554687-7.675781-12.382812-11.371094-20.347656-8.515625zm0 0" fill="#d7e057"/><path d="m328.324219 281.09375c-4.242188-9.148438-14.597657-13.476562-24.082031-10.078125l-119.082032 42.695313c-.789062.28125-1.429687.886718-1.753906 1.664062s-.304688 1.65625.046875 2.421875l11.601563 25.039063c.503906 1.097656 1.589843 1.738281 2.722656 1.738281.421875 0 .851562-.089844 1.257812-.277344l127.828125-59.21875c.71875-.335937 1.28125-.941406 1.554688-1.6875.273437-.75.238281-1.574219-.09375-2.296875zm-129.085938 56.496094-8.960937-19.335938 115.992187-41.589844c5.578125-1.996093 11.582031-.125 15.046875 4.371094zm0 0" fill="#3a312a"/><path d="m176.234375 289.191406c-.660156 4.480469-2.519531 8.796875-5.617187 12.457032l18.457031 8.300781 5.601562-12.460938zm0 0" fill="#87796f"/><path d="m195.90625 294.753906-18.441406-8.300781c-.855469-.386719-1.847656-.347656-2.671875.105469s-1.390625 1.261718-1.527344 2.195312c-.597656 4.054688-2.304687 7.847656-4.941406 10.957032-.609375.71875-.84375 1.683593-.636719 2.601562s.835938 1.6875 1.695312 2.074219l18.460938 8.300781c.390625.175781.808594.265625 1.230469.265625.359375 0 .722656-.066406 1.066406-.195313.742187-.285156 1.34375-.851562 1.671875-1.578124l5.597656-12.460938c.679688-1.511719.003906-3.285156-1.503906-3.964844zm-8.335938 11.230469-12.351562-5.550781c1.367188-2.171875 2.425781-4.527344 3.152344-6.992188l12.339844 5.554688zm0 0" fill="#3a312a"/><path d="m169.183594 267.925781c-9.753906-9.75-25.5625-9.746093-35.308594.007813-9.75 9.75-9.746094 25.558594.007812 35.304687 9.75 9.75 25.5625 9.746094 35.308594-.007812 9.746094-9.75 9.742188-25.558594-.007812-35.304688zm-8.144532 27.160157c-5.25 5.253906-13.761718 5.253906-19.011718.003906-5.253906-5.25-5.253906-13.761719-.003906-19.015625 5.25-5.25 13.761718-5.253907 19.011718-.003907 5.253906 5.25 5.253906 13.765626.003906 19.015626zm0 0" fill="#f16c7a" fill-rule="evenodd"/><path d="m171.300781 265.800781c-10.910156-10.902343-28.652343-10.898437-39.550781.011719-10.902344 10.90625-10.898438 28.648438.007812 39.550781 5.28125 5.28125 12.304688 8.1875 19.773438 8.1875h.003906c7.46875-.003906 14.496094-2.914062 19.773438-8.195312 10.902344-10.910157 10.898437-28.652344-.007813-39.554688zm-4.234375 35.308594c-4.148437 4.152344-9.664062 6.4375-15.53125 6.4375h-.003906c-5.867188 0-11.378906-2.28125-15.53125-6.429687-8.566406-8.5625-8.566406-22.496094-.003906-31.066407 4.285156-4.285156 9.910156-6.425781 15.539062-6.425781 5.621094 0 11.246094 2.140625 15.527344 6.417969 8.566406 8.566406 8.566406 22.5.003906 31.066406zm-3.910156-27.160156c-3.105469-3.101563-7.234375-4.8125-11.625-4.8125h-.003906c-4.394532 0-8.523438 1.710937-11.628906 4.820312-6.410157 6.414063-6.410157 16.84375.003906 23.253907 3.109375 3.105468 7.234375 4.816406 11.628906 4.816406h.003906c4.390625-.003906 8.519532-1.714844 11.625-4.820313 3.105469-3.105469 4.816406-7.238281 4.816406-11.632812 0-4.386719-1.710937-8.519531-4.820312-11.625zm-4.238281 19.015625c-1.972657 1.976562-4.597657 3.0625-7.386719 3.0625s-5.410156-1.085938-7.382812-3.058594c-4.074219-4.070312-4.078126-10.695312-.003907-14.769531 1.972657-1.976563 4.59375-3.0625 7.382813-3.0625h.003906c2.789062 0 5.410156 1.085937 7.382812 3.058593 1.972657 1.96875 3.058594 4.59375 3.0625 7.382813 0 2.792969-1.085937 5.414063-3.058593 7.386719zm0 0" fill="#3a312a"/><path d="m197.535156 291.132812-11.3125 25.171876 119.558594 41.332031c7.996094 2.765625 16.777344-1.027344 20.25-8.746094zm0 0" fill="#d7e057"/><path d="m327.257812 346.152344-128.492187-57.753906c-.726563-.328126-1.554687-.351563-2.296875-.070313-.742188.285156-1.34375.851563-1.671875 1.578125l-11.3125 25.167969c-.347656.769531-.351563 1.648437-.019531 2.421875.335937.773437.980468 1.371094 1.773437 1.644531l119.5625 41.332031c2.117188.734375 4.273438 1.082032 6.390625 1.082032 7.410156 0 14.359375-4.28125 17.570313-11.433594.683593-1.511719.007812-3.285156-1.503907-3.96875zm-20.496093 8.648437-116.457031-40.257812 8.738281-19.441407 122.714843 55.160157c-3.414062 4.535156-9.398437 6.472656-14.996093 4.539062zm0 0" fill="#3a312a"/><path d="m229.734375 313.90625c-1.535156-3.3125-5.46875-4.757812-8.785156-3.21875-3.316407 1.535156-4.757813 5.46875-3.222657 8.785156 1.535157 3.316406 5.46875 4.757813 8.785157 3.222656 3.316406-1.539062 4.757812-5.472656 3.222656-8.789062zm0 0" fill="#f16c7a" fill-rule="evenodd"/><path d="m232.457031 312.648438c-1.082031-2.332032-3.003906-4.101563-5.414062-4.988282-2.414063-.882812-5.027344-.777344-7.355469.304688-4.8125 2.226562-6.910156 7.957031-4.683594 12.765625 1.625 3.507812 5.109375 5.574219 8.742188 5.574219 1.351562 0 2.722656-.285157 4.027344-.890626 2.332031-1.078124 4.101562-3 4.988281-5.410156.882812-2.414062.773437-5.027344-.304688-7.355468zm-5.332031 5.289062c-.332031.90625-.996094 1.628906-1.875 2.035156-1.804688.835938-3.960938.050782-4.800781-1.761718-.835938-1.808594-.046875-3.964844 1.761719-4.804688.484374-.222656 1-.335938 1.515624-.335938.421876 0 .84375.074219 1.25.226563.90625.332031 1.628907.996094 2.035157 1.875.40625.875.445312 1.855469.113281 2.765625zm0 0" fill="#3a312a"/><path d="m404.335938 186.476562c-4.101563 0-8.082032-.519531-11.878907-1.519531v263.339844h30v-265.402344c-5.582031 2.300781-11.703125 3.582031-18.121093 3.582031zm0 0" fill="#decaad"/></svg>