<svg height="512" viewBox="0 0 58 48" width="512" xmlns="http://www.w3.org/2000/svg"><g id="Page-1" fill="none" fill-rule="evenodd"><g id="011---Online-Shopping" fill-rule="nonzero"><rect id="Rectangle-path" fill="#35495e" height="48" rx="4" width="58"/><path id="Shape" d="m58 4v6h-58v-6c0-2.209139 1.790861-4 4-4h50c2.209139 0 4 1.790861 4 4z" fill="#2fa8cc"/><circle id="Oval" cx="4" cy="6" fill="#e64c3c" r="1"/><circle id="Oval" cx="8" cy="6" fill="#f0c419" r="1"/><circle id="Oval" cx="12" cy="6" fill="#7ed09e" r="1"/><path id="Shape" d="m54 5h-17c-.5522847 0-1 .44771525-1 1s.4477153 1 1 1h17c.5522847 0 1-.44771525 1-1s-.4477153-1-1-1z" fill="#2980ba"/><path id="Shape" d="m33 5h-2c-.5522847 0-1 .44771525-1 1s.4477153 1 1 1h2c.5522847 0 1-.44771525 1-1s-.4477153-1-1-1z" fill="#2980ba"/><rect id="Rectangle-path" fill="#2c3e50" height="30" rx="2" width="30" x="5" y="14"/><g fill="#ecf0f1"><path id="Shape" d="m47 18h-8c-.5522847 0-1-.4477153-1-1s.4477153-1 1-1h8c.5522847 0 1 .4477153 1 1s-.4477153 1-1 1z"/><path id="Shape" d="m54 22h-15c-.5522847 0-1-.4477153-1-1s.4477153-1 1-1h15c.5522847 0 1 .4477153 1 1s-.4477153 1-1 1z"/><path id="Shape" d="m54 26h-15c-.5522847 0-1-.4477153-1-1s.4477153-1 1-1h15c.5522847 0 1 .4477153 1 1s-.4477153 1-1 1z"/><path id="Shape" d="m54 30h-15c-.5522847 0-1-.4477153-1-1s.4477153-1 1-1h15c.5522847 0 1 .4477153 1 1s-.4477153 1-1 1z"/><path id="Shape" d="m54 34h-15c-.5522847 0-1-.4477153-1-1s.4477153-1 1-1h15c.5522847 0 1 .4477153 1 1s-.4477153 1-1 1z"/></g><rect id="Rectangle-path" fill="#4fba6f" height="4" rx="2" width="15" x="39" y="40"/><path id="Shape" d="m28.56 24.32-2.33 7c-.1411508.4046466-.5214529.6768629-.95.68h-8.59c-.4159444.0029275-.7902666-.2519302-.94-.64l-3.21-8.3600033 15.07.0000033c.3226006-.0008335.6257891.154014.8142345.4158539.1884454.26184.2389991.598508.1357655.9041461z" fill="#67b9cc"/><path id="Shape" d="m19 29c-.5522847 0-1-.4477153-1-1v-2c0-.5522847.4477153-1 1-1s1 .4477153 1 1v2c0 .5522847-.4477153 1-1 1z" fill="#2fa8cc"/><path id="Shape" d="m23 29c-.5522847 0-1-.4477153-1-1v-2c0-.5522847.4477153-1 1-1s1 .4477153 1 1v2c0 .5522847-.4477153 1-1 1z" fill="#2fa8cc"/><circle id="Oval" cx="16" cy="37" fill="#3b97d3" r="2"/><circle id="Oval" cx="26" cy="37" fill="#3b97d3" r="2"/><path id="Shape" d="m25.279 33h-8.592c-.826593-.0032474-1.5670971-.5117242-1.867-1.282l-3.2-8.338c-.006-.014-.011-.028-.016-.042l-1.291-3.338h-1.313c-.55228475 0-1-.4477153-1-1s.44771525-1 1-1h2c.4136402.0001396.7845032.254934.933.641l1.294 3.359h14.386c.6434844-.0009059 1.2481004.3078577 1.624645.8296692s.4790187 1.1929259.275355 1.8033308l-2.333 7c-.2728388.8177393-1.0389467 1.3686438-1.901 1.367zm-11.279-9 2.691 7h8.592l2.333-7z" fill="#2fa8cc"/></g></g></svg>