<svg id="Capa_1" enable-background="new 0 0 512 512" height="512" viewBox="0 0 512 512" width="512" xmlns="http://www.w3.org/2000/svg" xmlns:xlink="http://www.w3.org/1999/xlink"><linearGradient id="SVGID_1_" gradientUnits="userSpaceOnUse" x1="222.235" x2="284.235" y1="138.123" y2="329.456"><stop offset=".0112" stop-color="#dcfdee"/><stop offset=".7774" stop-color="#ccddfb"/><stop offset="1" stop-color="#c7d3ff"/></linearGradient><path d="m501.873 127.75c-22.357-56.888-91.226-91.003-149.556-68.427-68.57 26.539-43.27 131.236-104.983 153.088-32.669 11.568-80.963-31.644-113.969-38.27-60.821-12.211-115.881 30.704-129.439 90.134-13.832 60.63 8.353 141.61 74.967 158.066 79.35 19.602 120.683-51.729 187.249-72.211 68.31-21.019 144.263 28.622 200.814-31.776 41.78-44.621 57.055-134.272 34.917-190.604z" fill="url(#SVGID_1_)"/><path d="m431.614 143.411c0-38.834-31.13-70.377-69.794-71.088v-6.03c0-11.6-9.4-21-21-21h-205.64c-11.6 0-21 9.4-21 21v159.754c-35.013 4.439-62.093 34.313-62.093 70.531 0 36.219 27.08 66.092 62.093 70.531v101.603c0 11.6 9.4 21 21 21h205.64c11.6 0 21-9.4 21-21v-254.213c38.664-.71 69.794-32.254 69.794-71.088z" fill="#2626bc" opacity=".11"/><path d="m441.161 385.594-24.46-25.89c-1.97-2.09-5.29-2.09-7.27 0l-24.45 25.89c-3.02 3.19-.76 8.43 3.63 8.43h12.13v38.26c0 2.76 2.23 5 5 5h14.66c2.76 0 5-2.24 5-5v-38.26h12.13c4.38 0 6.65-5.24 3.63-8.43z" fill="#2626bc" opacity=".11"/><path d="m70.261 209.979c2.76 0 5-2.24 5-5v-38.26h12.13c4.38 0 6.65-5.24 3.63-8.43l-24.46-25.89c-1.97-2.09-5.29-2.09-7.27 0l-24.45 25.89c-3.02 3.19-.76 8.43 3.63 8.43h12.13v38.26c0 2.76 2.23 5 5 5z" fill="#2626bc" opacity=".11"/><path d="m379.82 48.293v402.42c0 11.6-9.4 21-21 21h-205.64c-11.6 0-21-9.4-21-21v-402.42c0-11.6 9.4-21 21-21h205.64c11.6 0 21 9.4 21 21z" fill="#97ffd2"/><path d="m379.82 71.933v142.22c-.44.01-.89.01-1.33.01-39.28 0-71.12-31.84-71.12-71.12s31.84-71.12 71.12-71.12c.44 0 .89 0 1.33.01z" fill="#02ffb3"/><path d="m212.33 296.213c0 39.28-31.84 71.12-71.12 71.12-3.06 0-6.07-.19-9.03-.57v-141.1c2.96-.38 5.97-.57 9.03-.57 39.28 0 71.12 31.84 71.12 71.12z" fill="#02ffb3"/><path d="m339.92 142.533v66.88c0 2.76-2.24 5-5 5h-160.19c-2.76 0-5-2.24-5-5v-66.88c0-2.76 2.24-5 5-5h160.19c2.76 0 5 2.24 5 5z" fill="#ffdbed"/><path d="m339.92 142.533v60.27c-19.59-12.66-32.55-34.7-32.55-59.76 0-1.85.07-3.69.21-5.51h27.34c2.76 0 5 2.24 5 5z" fill="#ffc4df"/><path d="m379.818 81.5v-33.213c0-11.598-9.402-21-21-21h-205.636c-11.598 0-21 9.402-21 21v33.213z" fill="#6583fe"/><path d="m379.82 48.287v33.21h-21.88v-33.21c0-11.6-9.4-21-21-21h21.88c11.6 0 21 9.399 21 21z" fill="#8399fe"/><circle cx="166.833" cy="55.483" fill="#fff" r="5.59"/><circle cx="186.743" cy="55.483" fill="#fff" r="5.59"/><circle cx="206.654" cy="55.483" fill="#fff" r="5.59"/><circle cx="378.492" cy="125.411" fill="#ff7eb8" r="71.122"/><circle cx="141.209" cy="278.579" fill="#ff7eb8" r="71.122"/><path d="m402.981 367.594 24.45-25.89c1.98-2.09 5.3-2.09 7.27 0l24.46 25.89c3.02 3.19.75 8.43-3.63 8.43h-12.13v38.26c0 2.76-2.24 5-5 5h-14.66c-2.77 0-5-2.24-5-5v-38.26h-12.13c-4.39 0-6.65-5.24-3.63-8.43z" fill="#02ffb3"/><path d="m52.841 140.289 24.45-25.89c1.98-2.09 5.3-2.09 7.27 0l24.46 25.89c3.02 3.19.75 8.43-3.63 8.43h-12.13v38.26c0 2.76-2.24 5-5 5h-14.66c-2.77 0-5-2.24-5-5v-38.26h-12.13c-4.39 0-6.65-5.24-3.63-8.43z" fill="#02ffb3"/><path d="m184.847 142.537h-16.707c-2.762 0-5-2.239-5-5s2.238-5 5-5h16.707c2.762 0 5 2.239 5 5s-2.238 5-5 5z" fill="#fff"/><path d="m219.95 173.764h-51.81c-2.762 0-5-2.239-5-5s2.238-5 5-5h51.81c2.762 0 5 2.239 5 5s-2.239 5-5 5z" fill="#fff"/><path d="m244.66 190.647h-76.52c-2.762 0-5-2.239-5-5s2.238-5 5-5h76.52c2.762 0 5 2.239 5 5s-2.239 5-5 5z" fill="#fff"/><path d="m240.24 390.255v7.844c0 1.998-1.62 3.618-3.618 3.618h-6.498c-1.998 0-3.618-1.62-3.618-3.618v-7.844c0-1.998 1.62-3.618 3.618-3.618h6.498c1.999 0 3.618 1.62 3.618 3.618z" fill="#ff7eb8"/><path d="m262.867 379.401v18.698c0 1.998-1.62 3.618-3.618 3.618h-6.498c-1.998 0-3.618-1.62-3.618-3.618v-18.698c0-1.998 1.62-3.618 3.618-3.618h6.498c1.998 0 3.618 1.62 3.618 3.618z" fill="#ffc4df"/><path d="m217.614 390.255v7.844c0 1.998-1.62 3.618-3.618 3.618h-6.498c-1.998 0-3.618-1.62-3.618-3.618v-7.844c0-1.998 1.62-3.618 3.618-3.618h6.498c1.998 0 3.618 1.62 3.618 3.618z" fill="#6583fe"/><path d="m194.987 390.255v7.844c0 1.998-1.62 3.618-3.618 3.618h-6.498c-1.998 0-3.618-1.62-3.618-3.618v-7.844c0-1.998 1.62-3.618 3.618-3.618h6.498c1.999 0 3.618 1.62 3.618 3.618z" fill="#8399fe"/><path d="m172.361 390.255v7.844c0 1.998-1.62 3.618-3.618 3.618h-6.498c-1.998 0-3.618-1.62-3.618-3.618v-7.844c0-1.998 1.62-3.618 3.618-3.618h6.498c1.998 0 3.618 1.62 3.618 3.618z" fill="#9fb0fe"/><path d="m285.493 372.165v25.933c0 1.998-1.62 3.618-3.618 3.618h-6.498c-1.998 0-3.618-1.62-3.618-3.618v-25.933c0-1.998 1.62-3.618 3.618-3.618h6.498c1.999.001 3.618 1.62 3.618 3.618z" fill="#ffdbed"/><path d="m308.12 379.401v18.698c0 1.998-1.62 3.618-3.618 3.618h-6.498c-1.998 0-3.618-1.62-3.618-3.618v-18.698c0-1.998 1.62-3.618 3.618-3.618h6.498c1.998 0 3.618 1.62 3.618 3.618z" fill="#ffdbed"/><path d="m330.746 361.312v36.787c0 1.998-1.62 3.618-3.618 3.618h-6.498c-1.998 0-3.618-1.62-3.618-3.618v-36.787c0-1.998 1.62-3.618 3.618-3.618h6.498c1.999 0 3.618 1.62 3.618 3.618z" fill="#02ffb3"/><path d="m353.373 343.223v54.876c0 1.998-1.62 3.618-3.618 3.618h-6.498c-1.998 0-3.618-1.62-3.618-3.618v-54.876c0-1.998 1.62-3.618 3.618-3.618h6.498c1.998 0 3.618 1.62 3.618 3.618z" fill="#01eca5"/><path d="m54.592 104.871c-3.739 0-7.479-1.424-10.326-4.271-5.694-5.693-5.694-14.958 0-20.651 5.693-5.693 14.958-5.693 20.651 0 2.758 2.758 4.277 6.425 4.277 10.325 0 3.901-1.519 7.568-4.278 10.327v-.001.001c-2.845 2.846-6.585 4.27-10.324 4.27zm0-19.197c-1.179 0-2.357.449-3.254 1.346-1.795 1.795-1.795 4.716 0 6.511 1.794 1.793 4.715 1.793 6.509 0v-.001c.869-.869 1.348-2.024 1.348-3.255 0-1.229-.479-2.385-1.348-3.254-.898-.898-2.076-1.347-3.255-1.347z" fill="#8399fe"/><path d="m468.916 287.103c-3.74 0-7.479-1.423-10.326-4.271-5.693-5.692-5.693-14.957 0-20.651 5.695-5.694 14.959-5.693 20.652-.001 5.694 5.695 5.693 14.96 0 20.652v.001c-2.847 2.847-6.587 4.27-10.326 4.27zm6.791-7.805h.01zm-6.79-11.392c-1.179 0-2.357.448-3.255 1.346-1.794 1.795-1.795 4.716 0 6.511 1.794 1.793 4.714 1.794 6.51-.001 1.794-1.794 1.794-4.715-.001-6.51-.898-.897-2.076-1.346-3.254-1.346z" fill="#8399fe"/><path d="m98.5 464.287c-3.739 0-7.479-1.424-10.326-4.271-2.758-2.758-4.277-6.425-4.277-10.325s1.519-7.567 4.278-10.326c2.757-2.758 6.424-4.277 10.325-4.277s7.568 1.52 10.326 4.278 4.277 6.425 4.277 10.325-1.519 7.567-4.278 10.326v-.001.001c-2.846 2.846-6.586 4.27-10.325 4.27zm0-19.199c-1.229 0-2.385.479-3.254 1.349-.87.87-1.349 2.025-1.349 3.255s.479 2.385 1.348 3.254c1.795 1.795 4.715 1.794 6.509.001v-.001c.869-.869 1.348-2.024 1.348-3.254s-.479-2.385-1.348-3.254c-.869-.871-2.025-1.35-3.254-1.35z" fill="#ff7eb8"/><path d="m90.977 50.093h-3.25v-3.25c0-2.762-2.239-5-5-5s-5 2.238-5 5v3.25h-3.25c-2.761 0-5 2.238-5 5s2.239 5 5 5h3.25v3.25c0 2.762 2.239 5 5 5s5-2.238 5-5v-3.25h3.25c2.761 0 5-2.238 5-5s-2.239-5-5-5z" fill="#ff7eb8"/><path d="m485.416 333.433h-3.25v-3.25c0-2.762-2.239-5-5-5s-5 2.238-5 5v3.25h-3.25c-2.761 0-5 2.238-5 5s2.239 5 5 5h3.25v3.25c0 2.762 2.239 5 5 5s5-2.238 5-5v-3.25h3.25c2.761 0 5-2.238 5-5s-2.239-5-5-5z" fill="#01eca5"/><path d="m378.492 179.294c-29.711 0-53.883-24.172-53.883-53.883s24.172-53.883 53.883-53.883 53.883 24.172 53.883 53.883-24.172 53.883-53.883 53.883zm0-97.766c-24.197 0-43.883 19.686-43.883 43.883s19.686 43.883 43.883 43.883 43.883-19.686 43.883-43.883-19.686-43.883-43.883-43.883z" fill="#ffc4df"/><path d="m384.735 120.41h-1.243v-9.335h5.974c2.761 0 5-2.238 5-5s-2.239-5-5-5h-5.974v-2.199c0-2.762-2.239-5-5-5s-5 2.238-5 5v2.199h-1.243c-8.088 0-14.667 6.579-14.667 14.667s6.58 14.668 14.667 14.668h1.243v9.335h-5.974c-2.761 0-5 2.238-5 5s2.239 5 5 5h5.974v2.198c0 2.762 2.239 5 5 5s5-2.238 5-5v-2.198h1.243c8.088 0 14.667-6.58 14.667-14.668s-6.579-14.667-14.667-14.667zm-12.486 0c-2.574 0-4.667-2.094-4.667-4.668 0-2.573 2.094-4.667 4.667-4.667h1.243v9.335zm12.486 19.335h-1.243v-9.335h1.243c2.574 0 4.667 2.094 4.667 4.667 0 2.574-2.093 4.668-4.667 4.668z" fill="#ffdbed"/><path d="m141.208 332.462c-29.711 0-53.883-24.172-53.883-53.883s24.172-53.883 53.883-53.883 53.883 24.172 53.883 53.883-24.172 53.883-53.883 53.883zm0-97.766c-24.197 0-43.883 19.686-43.883 43.883s19.686 43.883 43.883 43.883 43.883-19.686 43.883-43.883-19.685-43.883-43.883-43.883z" fill="#ffc4df"/><path d="m147.452 273.578h-1.243v-9.335h5.974c2.761 0 5-2.238 5-5s-2.239-5-5-5h-5.974v-2.199c0-2.762-2.239-5-5-5s-5 2.238-5 5v2.199h-1.243c-8.088 0-14.667 6.579-14.667 14.667s6.58 14.668 14.667 14.668h1.243v9.335h-5.974c-2.761 0-5 2.238-5 5s2.239 5 5 5h5.974v2.198c0 2.762 2.239 5 5 5s5-2.238 5-5v-2.198h1.243c8.088 0 14.667-6.58 14.667-14.668s-6.579-14.667-14.667-14.667zm-12.486 0c-2.574 0-4.667-2.094-4.667-4.668 0-2.573 2.094-4.667 4.667-4.667h1.243v9.335zm12.486 19.335h-1.243v-9.335h1.243c2.574 0 4.667 2.094 4.667 4.667 0 2.574-2.094 4.668-4.667 4.668z" fill="#ffdbed"/><g fill="#2626bc"><path d="m256 442.837c1.328 0 2.601-.528 3.539-1.468l5.83-5.84c1.951-1.954 1.948-5.12-.006-7.07-1.954-1.951-5.12-1.949-7.071.006l-2.292 2.295-2.292-2.295c-1.951-1.955-5.117-1.957-7.071-.006-1.954 1.95-1.957 5.116-.006 7.07l5.83 5.84c.938.939 2.211 1.468 3.539 1.468z"/><path d="m420.9 188.631c2.292-1.541 2.901-4.647 1.361-6.939-1.541-2.291-4.647-2.898-6.939-1.361-10.905 7.329-23.641 11.203-36.83 11.203-36.46 0-66.122-29.662-66.122-66.122s29.662-66.122 66.122-66.122c36.459 0 66.122 29.662 66.122 66.122 0 12.976-3.769 25.548-10.898 36.355-1.521 2.305-.885 5.406 1.42 6.927 2.306 1.521 5.406.885 6.927-1.421 8.211-12.446 12.552-26.922 12.552-41.861 0-39.842-30.773-72.61-69.795-75.839v-1.285c0-14.337-11.664-26-26-26h-205.638c-14.336 0-26 11.663-26 26v76.163c0 2.762 2.239 5 5 5s5-2.238 5-5v-37.951h175.919c-6.806 11.395-10.73 24.701-10.73 38.911 0 40.742 32.175 74.105 72.448 76.029v249.273c0 8.822-7.178 16-16 16h-205.637c-8.822 0-16-7.178-16-16v-96.12c1.334.07 2.676.108 4.027.108 41.974 0 76.122-34.148 76.122-76.122s-34.148-76.122-76.122-76.122c-1.351 0-2.693.038-4.027.108v-50.015c0-2.762-2.239-5-5-5s-5 2.238-5 5v51.225c-35.293 6.604-62.095 37.624-62.095 74.805s26.801 68.2 62.095 74.805v97.329c0 14.337 11.664 26 26 26h205.637c14.336 0 26-11.663 26-26v-249.45c12.91-1.064 25.275-5.372 36.081-12.633zm-283.718-112.131v-28.213c0-8.822 7.178-16 16-16h205.637c8.822 0 16 7.178 16 16v1.095c-21.878 1.045-41.357 11.373-54.595 27.118zm-62.095 202.079c0-36.46 29.662-66.122 66.122-66.122s66.122 29.662 66.122 66.122-29.662 66.122-66.122 66.122-66.122-29.662-66.122-66.122z"/><path d="m462.799 364.158-24.458-25.89c-1.88-1.991-4.53-3.134-7.269-3.134-2.739 0-5.389 1.142-7.27 3.133l-24.459 25.891c-2.745 2.905-3.496 7.154-1.914 10.825 1.582 3.67 5.187 6.042 9.184 6.042h7.125v33.257c0 5.514 4.486 10 10 10h14.667c5.514 0 10-4.486 10-10v-33.257h7.126c3.997 0 7.602-2.372 9.183-6.042 1.581-3.671.829-7.92-1.915-10.825zm-19.395 6.867c-2.761 0-5 2.238-5 5v38.257h-14.667v-38.257c0-2.762-2.239-5-5-5h-12.125l24.458-25.891 24.459 25.891z"/><path d="m73.597 196.976h14.667c5.514 0 10-4.486 10-10v-33.256h7.126c3.997 0 7.602-2.372 9.183-6.042 1.582-3.671.831-7.92-1.914-10.825l-24.459-25.891c-1.88-1.99-4.529-3.132-7.268-3.132-2.738 0-5.388 1.141-7.27 3.132l-24.459 25.891c-2.745 2.905-3.496 7.154-1.914 10.825 1.582 3.67 5.187 6.042 9.184 6.042h7.125v33.257c-.001 5.513 4.485 9.999 9.999 9.999zm-17.126-53.256 24.458-25.891 24.459 25.891h-12.125c-2.761 0-5 2.238-5 5v38.257h-14.666v-38.257c0-2.762-2.239-5-5-5z"/></g><path d="m286.335 137.537c0-9.16-7.453-16.613-16.613-16.613s-16.613 7.453-16.613 16.613c0 4.518 1.818 8.615 4.755 11.613-2.936 2.998-4.755 7.095-4.755 11.613 0 2.762 2.239 5 5 5s5-2.238 5-5c0-3.646 2.967-6.613 6.613-6.613s6.613 2.967 6.613 6.613c0 2.762 2.239 5 5 5s5-2.238 5-5c0-4.518-1.818-8.615-4.755-11.613 2.937-2.998 4.755-7.095 4.755-11.613zm-16.613-6.613c3.646 0 6.613 2.967 6.613 6.613s-2.967 6.613-6.613 6.613-6.613-2.967-6.613-6.613 2.967-6.613 6.613-6.613z" fill="#ff7eb8"/><path d="m422.62 306.13c-1.95 1.95-5.11 1.95-7.07 0l-28.12-28.13h-19.39c-4.01 0-7.78-1.56-10.61-4.39l-18.6-18.6c-.95-.95-2.2-1.47-3.54-1.47h-24.71c-1.34 0-2.59.52-3.54 1.47l-49.22 49.22c-2.84 2.84-6.6 4.4-10.61 4.4h-36.07c1.4-3.22 2.57-6.56 3.51-10h32.56c1.34 0 2.59-.52 3.54-1.47l49.22-49.22c2.83-2.84 6.6-4.4 10.61-4.4h24.71c4.01 0 7.78 1.56 10.61 4.4l18.6 18.6c.95.95 2.2 1.46 3.54 1.46h21.46c1.33 0 2.6.53 3.54 1.47l29.58 29.59c1.96 1.95 1.96 5.12 0 7.07z" fill="#ff7eb8"/><path d="m444.23 208.99-29.61 29.61c-2.84 2.83-6.6 4.39-10.61 4.39h-67.24c-1.33 0-2.59.52-3.53 1.47l-15.69 15.69c-2.83 2.83-6.6 4.39-10.61 4.39h-38.22c-1.34 0-2.59.52-3.54 1.47l-13.28 13.28c-2.83 2.83-6.6 4.39-10.61 4.39h-24.13c.11-1.69.17-3.39.17-5.1 0-1.65-.05-3.28-.16-4.9h24.12c1.34 0 2.59-.52 3.54-1.47l13.28-13.28c2.83-2.83 6.6-4.39 10.61-4.39h38.22c1.34 0 2.59-.52 3.54-1.46l15.69-15.69c2.83-2.84 6.6-4.4 10.6-4.4h67.24c1.32 0 2.6-.53 3.53-1.46l29.61-29.61c1.96-1.95 5.12-1.95 7.08 0 1.95 1.95 1.95 5.12 0 7.07z" fill="#8399fe"/><path d="m443.18 249.87-44.5 44.5c-2.84 2.84-6.6 4.4-10.61 4.4h-44.11c-1.34 0-2.6.52-3.54 1.46l-12.46 12.46c-2.83 2.83-6.6 4.39-10.6 4.39h-46.48c-1.34 0-2.59.52-3.54 1.46l-9.52 9.53c-2.84 2.83-6.6 4.39-10.61 4.39h-52.28c3.09-3.09 5.92-6.43 8.45-10h43.83c1.34 0 2.59-.52 3.54-1.46l9.52-9.53c2.84-2.83 6.6-4.39 10.61-4.39h46.48c1.33 0 2.59-.52 3.53-1.46l12.46-12.46c2.83-2.83 6.6-4.39 10.61-4.39h44.11c1.34 0 2.59-.52 3.54-1.47l44.5-44.5c1.96-1.96 5.12-1.96 7.07 0 1.96 1.95 1.96 5.11 0 7.07z" fill="#01eca5"/></svg>