<svg height="512pt" viewBox="0 -9 512 511" width="512pt" xmlns="http://www.w3.org/2000/svg"><path d="m166.59375 112.472656c0 31.246094-6.941406 64.871094-18.058594 92.886719l-72.625.578125-43.304687.351562c-11.324219-28.203124-18.417969-62.230468-18.417969-93.816406 0-71.765625 36.644531-103.703125 76.203125-103.703125 7.414063 0 14.726563 1.128907 21.71875 3.421875 30.292969 9.953125 54.484375 41.972656 54.484375 100.28125zm0 0" fill="#dd8c22"/><path d="m166.59375 112.472656c0 31.246094-6.941406 64.871094-18.058594 92.886719l-72.625.578125c-11.253906-28.128906-18.285156-62.011719-18.285156-93.464844 0-58.308594 24.191406-90.328125 54.484375-100.28125 30.292969 9.953125 54.484375 41.972656 54.484375 100.28125zm0 0" fill="#efa233"/><path d="m330.769531 362.785156 12.183594 31.640625h29.679687l24.394532-59.320312zm0 0" fill="#b28344"/><path d="m511.992188 362.785156-12.183594 31.640625h-29.679688l-24.394531-59.320312zm0 0" fill="#b28344"/><path d="m478.496094 345.949219-1.570313 10.90625-1.867187 13.035156-17.753906 123.601563h-71.835938l-17.769531-123.601563-1.867188-13.035156-2.097656-14.59375 15.5-7.15625 85.027344-3.886719.292969.800781zm0 0" fill="#515f75"/><path d="m421.378906 356.859375h17.476563v136.636719h-17.476563zm0 0" fill="#3b485b"/><path d="m397.027344 335.105469 67.527344-3.085938-.300782-.796875-85.019531 3.882813-15.503906 7.152343 21.730469 151.234376h17.796874l-24.894531-173.230469zm0 0" fill="#3b485b"/><path d="m512 235.242188v127.546874h-35.917969v-5.933593h-109.394531v5.933593h-35.917969v-127.546874l42.195313-42.195313h96.839844zm0 0" fill="#515f75"/><path d="m469.804688 193.046875 3.214843 42.503906h-18.507812l3.082031 16.96875-30.800781 41.132813h-10.816407l-30.800781-41.132813 3.082031-16.96875h-18.507812l3.214844-42.503906" fill="#3b485b"/><path d="m388.78125 193.046875h-15.816406l-42.195313 42.195313v127.546874h15.816407v-127.546874zm0 0" fill="#3b485b"/><path d="m469.445312 193.046875-33.9375 55.5625-14.128906 23.121094-14.128906-23.121094-33.9375-55.5625zm0 0" fill="#ccc"/><path d="m441.382812 218.195312-20.003906 17.863282-20.007812-17.863282 20.007812-17.878906zm0 0" fill="#f74866"/><path d="m441.382812 193-20.003906 7.316406-20.007812-7.316406 20.007812-28.421875zm0 0" fill="#9e6c30"/><path d="m435.507812 248.675781-14.128906 23.125-14.128906-23.125 14.128906-12.617187zm0 0" fill="#f74866"/><path d="m363.425781 143.023438c-9.496093 0-17.191406-6.886719-17.191406-15.386719 0-8.496094 7.695313-15.386719 17.191406-15.386719h114.457031c9.496094 0 17.191407 6.890625 17.191407 15.386719 0 8.5-7.699219 15.386719-17.191407 15.386719" fill="#9e6c30"/><path d="m477.886719 78.574219v57.234375c0 31.605468-25.625 57.226562-57.234375 57.226562-15.800782 0-30.113282-6.40625-40.46875-16.761718-10.355469-10.355469-16.761719-24.664063-16.761719-40.464844v-57.234375zm0 0" fill="#b28344"/><path d="m420.246094 193.035156c-15.644532-.105468-29.789063-6.492187-40.0625-16.757812-10.355469-10.359375-16.761719-24.664063-16.761719-40.46875v-57.230469h25.765625v57.230469c0 15.804687 3.519531 30.109375 9.214844 40.46875 5.609375 10.195312 13.316406 16.558594 21.84375 16.757812zm0 0" fill="#9e6c30"/><path d="m441.011719 135.183594c-2.097657 0-3.796875-1.699219-3.796875-3.796875v-7.949219c0-2.097656 1.699218-3.796875 3.796875-3.796875 2.097656 0 3.796875 1.699219 3.796875 3.796875v7.949219c0 2.097656-1.699219 3.796875-3.796875 3.796875zm0 0" fill="#293544"/><path d="m400.292969 135.183594c-2.09375 0-3.792969-1.699219-3.792969-3.796875v-7.949219c0-2.097656 1.699219-3.796875 3.792969-3.796875 2.097656 0 3.796875 1.699219 3.796875 3.796875v7.949219c0 2.097656-1.699219 3.796875-3.796875 3.796875zm0 0" fill="#293544"/><path d="m477.886719 78.574219v14.34375c-3.921875 2.808593-8.613281 5.273437-14.1875 7.28125-20.738281 7.472656-40.816407 4.957031-55.011719 1 0 0-.003906 0-.003906-.007813-12.371094-3.441406-20.273438-7.984375-20.273438-7.984375s-5.21875 25.117188-24.988281 25.117188v-39.75zm0 0" fill="#9e6c30"/><path d="m463.699219 94.128906c-20.738281 7.472656-40.816407 4.957032-55.015625.996094 0 0-.003906 0-.003906-.003906-12.363282-3.445313-20.269532-7.988282-20.269532-7.988282s-5.222656 25.117188-24.988281 25.117188c0 0-13.152344-23.265625-12.738281-44.785156.214844-11.164063 9.417968-19.511719 19.878906-19.511719 1.953125 0 3.953125.289063 5.941406.910156 5.601563-15.042969 20.402344-24.5625 36.425782-23.589843 2.496093.152343 5.007812.351562 7.527343.582031.484375.039062.96875.082031 1.453125.128906.050782.003906.101563.011719.148438.015625 26.15625 2.453125 52.652344 7.238281 68.21875-9.984375 0 0 25.726562 59.269531-26.578125 78.113281zm0 0" fill="#515f75"/><path d="m412.929688 25.273438c2.496093.152343 5.007812.351562 7.527343.582031-23.078125-.976563-41.414062 49.851562-11.777343 69.265625-12.363282-3.445313-20.269532-7.988282-20.269532-7.988282s-5.21875 25.117188-24.988281 25.117188c0 0-13.148437-23.265625-12.738281-44.785156.214844-11.164063 9.417968-19.511719 19.878906-19.511719 1.953125 0 3.953125.289063 5.941406.910156 5.601563-15.042969 20.402344-24.5625 36.425782-23.589843zm0 0" fill="#3b485b"/><path d="m422.070312 26.003906c-.054687-.007812-.105468-.015625-.160156-.019531.050782.003906.097656.011719.148438.015625zm0 0" fill="#f4af9d"/><path d="m420.652344 165.597656c-6.054688 0-12.113282-2.308594-16.722656-6.917968-1.484376-1.480469-1.484376-3.886719 0-5.367188 1.480468-1.480469 3.882812-1.480469 5.367187 0 6.261719 6.261719 16.449219 6.261719 22.710937 0 1.484376-1.480469 3.886719-1.480469 5.367188 0 1.484375 1.480469 1.484375 3.886719 0 5.367188-4.609375 4.609374-10.664062 6.917968-16.722656 6.917968zm0 0" fill="#9e6c30"/><g fill="#3b485b"><path d="m476.925781 356.855469-1.867187 13.035156h-107.359375l-1.867188-13.035156zm0 0"/><path d="m414.394531 291.535156h12.398438v74.101563h-12.398438zm0 0"/><path d="m480.761719 262.800781c-2.585938 0-4.679688 2.09375-4.679688 4.679688v95.308593h9.355469v-95.308593c0-2.582031-2.09375-4.679688-4.675781-4.679688zm0 0"/><path d="m361.925781 262.800781c-2.585937 0-4.679687 2.09375-4.679687 4.679688v95.308593h9.355468v-95.308593c0-2.582031-2.09375-4.679688-4.675781-4.679688zm0 0"/></g><path d="m0 347.277344 12.1875 31.636718h29.679688l24.394531-59.320312zm0 0" fill="#f4af9d"/><path d="m181.226562 347.277344-12.1875 31.636718h-29.679687l-24.394531-59.320312zm0 0" fill="#f4af9d"/><path d="m147.730469 330.4375-1.574219 10.90625-1.867188 13.035156-17.753906 139.117188h-71.835937l-17.769531-139.117188-1.867188-13.035156-2.097656-14.589844 15.503906-7.160156 85.023438-3.886719.292968.800781zm0 0" fill="#515f75"/><path d="m90.609375 341.347656h17.476563v152.152344h-17.476563zm0 0" fill="#3b485b"/><path d="m66.261719 319.59375 67.523437-3.082031-.300781-.800781-85.019531 3.882812-15.503906 7.152344 21.734374 166.75h17.796876l-24.898438-188.746094zm0 0" fill="#3b485b"/><path d="m181.234375 219.734375v127.542969h-35.921875v-5.933594h-109.394531v5.933594h-35.917969v-127.542969l42.199219-42.199219h96.835937zm0 0" fill="#515f75"/><path d="m139.035156 177.535156 3.21875 42.503906h-18.511718l3.085937 16.96875-30.804687 41.132813h-10.8125l-30.804688-41.132813 3.085938-16.96875h-18.511719l3.21875-42.503906" fill="#3b485b"/><path d="m58.015625 177.535156h-15.820313l-42.195312 42.199219v127.542969h15.820312v-127.542969zm0 0" fill="#3b485b"/><path d="m138.675781 177.535156-33.9375 55.5625-14.128906 23.125-14.128906-23.125-33.9375-55.5625zm0 0" fill="#ccc"/><path d="m110.617188 202.6875-20.007813 17.863281-20.007813-17.863281 20.007813-17.878906zm0 0" fill="#f74866"/><path d="m110.617188 177.488281-20.007813 7.320313-20.007813-7.320313 20.007813-28.421875zm0 0" fill="#ea9e8f"/><path d="m104.738281 233.167969-14.128906 23.121093-14.128906-23.121093 14.128906-12.617188zm0 0" fill="#f74866"/><path d="m146.15625 341.34375-1.867188 13.035156h-107.359374l-1.867188-13.035156zm0 0" fill="#3b485b"/><path d="m83.625 276.023438h12.398438v74.105468h-12.398438zm0 0" fill="#3b485b"/><path d="m149.992188 247.292969c-2.582032 0-4.679688 2.09375-4.679688 4.675781v95.308594h9.359375v-95.308594c0-2.582031-2.09375-4.675781-4.679687-4.675781zm0 0" fill="#3b485b"/><path d="m31.15625 247.292969c-2.585938 0-4.679688 2.09375-4.679688 4.675781v95.308594h9.355469v-95.308594c0-2.582031-2.09375-4.675781-4.675781-4.675781zm0 0" fill="#3b485b"/><path d="m143.738281 81.1875v42.992188c0 29.464843-23.882812 53.359374-53.347656 53.359374-.125 0-.25 0-.371094-.011718h-.136719c-14.53125-.125-27.675781-6.082032-37.210937-15.617188-9.648437-9.660156-15.628906-22.992187-15.628906-37.730468v-42.992188s9.214843-13.984375 24.027343-19.039062c8.242188-2.8125 18.222657-2.875 29.320313 3.785156 6.691406-4.011719 12.96875-5.585938 18.71875-5.585938 20.894531 0 34.628906 20.839844 34.628906 20.839844zm0 0" fill="#f9c2af"/><path d="m89.964844 177.527344h-.082032c-14.53125-.125-27.675781-6.082032-37.210937-15.617188-9.648437-9.660156-15.628906-22.992187-15.628906-37.730468v-42.992188s9.214843-13.984375 24.027343-19.039062v62.042968c0 14.726563 3.277344 28.058594 8.582032 37.71875 5.214844 9.484375 12.382812 15.410156 20.3125 15.617188zm0 0" fill="#ea9e8f"/><path d="m110.242188 119.671875c-2.09375 0-3.792969-1.699219-3.792969-3.792969v-7.953125c0-2.097656 1.699219-3.796875 3.792969-3.796875 2.097656 0 3.796874 1.699219 3.796874 3.796875v7.953125c0 2.09375-1.699218 3.792969-3.796874 3.792969zm0 0" fill="#293544"/><path d="m69.527344 119.671875c-2.097656 0-3.796875-1.699219-3.796875-3.792969v-7.953125c0-2.097656 1.699219-3.796875 3.796875-3.796875 2.09375 0 3.792968 1.699219 3.792968 3.796875v7.953125c0 2.09375-1.699218 3.792969-3.792968 3.792969zm0 0" fill="#293544"/><path d="m91.300781 10.492188c-.054687-.007813-.105469-.011719-.160156-.019532.050781.007813.101563.011719.152344.015625zm0 0" fill="#f4af9d"/><path d="m89.882812 150.085938c-6.054687 0-12.113281-2.304688-16.722656-6.917969-1.484375-1.480469-1.484375-3.882813 0-5.367188 1.480469-1.480469 3.886719-1.480469 5.367188 0 6.261718 6.261719 16.453125 6.261719 22.714844 0 1.480468-1.480469 3.882812-1.480469 5.367187 0 1.480469 1.484375 1.480469 3.886719 0 5.367188-4.609375 4.613281-10.667969 6.917969-16.726563 6.917969zm0 0" fill="#e06e86"/><path d="m161.84375 347.269531 12.183594 31.640625h29.679687l24.394531-59.320312zm0 0" fill="#f4af9d"/><path d="m343.066406 347.269531-12.183594 31.640625h-29.679687l-24.398437-59.320312zm0 0" fill="#f4af9d"/><path d="m309.574219 330.433594-1.574219 10.90625-1.867188 13.035156-17.753906 139.117188h-71.835937l-17.773438-139.117188-1.863281-13.035156-2.097656-14.59375 15.5-7.15625 85.027344-3.886719.292968.800781zm0 0" fill="#515f75"/><path d="m252.453125 341.34375h17.476563v152.152344h-17.476563zm0 0" fill="#3b485b"/><path d="m228.101562 319.589844 67.523438-3.082032-.296875-.800781-85.019531 3.882813-15.503906 7.152344 21.730468 166.75h17.796875l-24.894531-188.746094zm0 0" fill="#3b485b"/><path d="m343.074219 219.730469v127.542969h-35.917969v-5.933594h-109.394531v5.933594h-35.917969v-127.542969l42.195312-42.199219h96.839844zm0 0" fill="#515f75"/><path d="m300.878906 177.53125 3.214844 42.503906h-18.507812l3.082031 16.96875-30.800781 41.132813h-10.816407l-30.800781-41.132813 3.082031-16.96875h-18.507812l3.214843-42.503906" fill="#3b485b"/><path d="m219.855469 177.53125h-15.816407l-42.195312 42.199219v127.542969h15.816406v-127.542969zm0 0" fill="#3b485b"/><path d="m300.519531 177.53125-33.9375 55.5625-14.128906 23.125-14.132813-23.125-33.933593-55.5625zm0 0" fill="#ccc"/><path d="m272.457031 202.683594-20.003906 17.859375-20.007813-17.859375 20.007813-17.878906zm0 0" fill="#f74866"/><path d="m272.457031 177.484375-20.003906 7.320313-20.007813-7.320313 20.007813-28.421875zm0 0" fill="#ea9e8f"/><path d="m266.582031 233.164062-14.128906 23.121094-14.132813-23.121094 14.132813-12.621093zm0 0" fill="#f74866"/><path d="m194.496094 127.511719c-9.492188 0-17.1875-6.890625-17.1875-15.386719 0-8.5 7.695312-15.386719 17.1875-15.386719h114.460937c9.496094 0 17.1875 6.886719 17.1875 15.386719 0 8.496094-7.695312 15.386719-17.1875 15.386719" fill="#ea9e8f"/><path d="m308.960938 63.0625v57.230469c0 31.605469-25.625 57.230469-57.234376 57.230469-15.800781 0-30.113281-6.410157-40.46875-16.761719-10.355468-10.355469-16.761718-24.667969-16.761718-40.46875v-57.230469zm0 0" fill="#f9c2af"/><path d="m251.320312 177.519531c-15.644531-.101562-29.789062-6.488281-40.0625-16.757812-10.355468-10.359375-16.761718-24.664063-16.761718-40.46875v-57.230469h25.765625v57.230469c0 15.804687 3.519531 30.109375 9.214843 40.46875 5.605469 10.195312 13.316407 16.5625 21.84375 16.757812zm0 0" fill="#ea9e8f"/><path d="m272.085938 119.667969c-2.097657 0-3.796876-1.699219-3.796876-3.792969v-7.953125c0-2.097656 1.699219-3.796875 3.796876-3.796875 2.097656 0 3.796874 1.699219 3.796874 3.796875v7.953125c0 2.09375-1.703124 3.792969-3.796874 3.792969zm0 0" fill="#293544"/><path d="m231.367188 119.667969c-2.09375 0-3.792969-1.699219-3.792969-3.792969v-7.953125c0-2.097656 1.699219-3.796875 3.792969-3.796875 2.097656 0 3.796874 1.699219 3.796874 3.796875v7.953125c0 2.09375-1.699218 3.792969-3.796874 3.792969zm0 0" fill="#293544"/><path d="m308.960938 63.0625v14.339844c-3.921876 2.808594-8.613282 5.273437-14.1875 7.285156-20.738282 7.46875-40.816407 4.953125-55.011719.996094 0 0-.003907 0-.003907-.007813-12.371093-3.4375-20.277343-7.984375-20.277343-7.984375s-5.214844 25.117188-24.984375 25.117188v-39.746094zm0 0" fill="#ea9e8f"/><path d="m294.769531 78.613281c-20.734375 7.472657-40.8125 4.957031-55.011719 1 0 0-.003906 0-.003906-.007812-12.363281-3.445313-20.269531-7.988281-20.269531-7.988281s-5.222656 25.117187-24.988281 25.117187c0 0-13.152344-23.261719-12.738282-44.785156.214844-11.160157 9.414063-19.507813 19.875-19.507813 1.953126 0 3.953126.285156 5.941407.910156 5.605469-15.046874 20.40625-24.566406 36.429687-23.59375 2.496094.15625 5.007813.351563 7.527344.582032.480469.039062.96875.085937 1.453125.128906.046875.003906.097656.011719.148437.015625 26.15625 2.457031 52.648438 7.238281 68.214844-9.984375.003906 0 25.730469 59.269531-26.578125 78.113281zm0 0" fill="#515f75"/><path d="m244.003906 9.757812c2.496094.15625 5.007813.351563 7.527344.582032-23.078125-.972656-41.414062 49.851562-11.777344 69.265625-12.363281-3.445313-20.269531-7.988281-20.269531-7.988281s-5.21875 25.117187-24.988281 25.117187c0 0-13.152344-23.261719-12.738282-44.785156.214844-11.160157 9.417969-19.507813 19.878907-19.507813 1.953125 0 3.953125.285156 5.9375.910156 5.605469-15.046874 20.40625-24.566406 36.429687-23.59375zm0 0" fill="#3b485b"/><path d="m253.144531 10.488281c-.054687-.007812-.105469-.011719-.160156-.019531.050781.007812.097656.011719.148437.015625zm0 0" fill="#f4af9d"/><path d="m251.726562 150.082031c-6.054687 0-12.113281-2.304687-16.722656-6.917969-1.484375-1.480468-1.484375-3.882812 0-5.367187 1.480469-1.480469 3.882813-1.480469 5.367188 0 6.261718 6.261719 16.449218 6.261719 22.710937 0 1.484375-1.480469 3.886719-1.480469 5.367188 0 1.484375 1.484375 1.484375 3.886719 0 5.367187-4.609375 4.613282-10.664063 6.917969-16.722657 6.917969zm0 0" fill="#e06e86"/><path d="m308 341.339844-1.867188 13.035156h-107.363281l-1.863281-13.035156zm0 0" fill="#3b485b"/><path d="m245.464844 276.019531h12.402344v74.101563h-12.402344zm0 0" fill="#3b485b"/><path d="m311.835938 247.289062c-2.585938 0-4.679688 2.09375-4.679688 4.675782v95.308594h9.355469v-95.308594c0-2.582032-2.09375-4.675782-4.675781-4.675782zm0 0" fill="#3b485b"/><path d="m193 247.289062c-2.585938 0-4.679688 2.09375-4.679688 4.675782v95.308594h9.355469v-95.308594c0-2.582032-2.09375-4.675782-4.675781-4.675782zm0 0" fill="#3b485b"/></svg>